  0
SECTION
  2
HEADER
  9
$ACADVER
  1
AC1014
  9
$HANDSEED
  5
FFFF
  9
$INSUNITS
 70
     0
  9
$MEASUREMENT
 70
     1
  0
ENDSEC
  0
SECTION
  2
TABLES
  0
TABLE
  2
VPORT
  5
8
330
0
100
AcDbSymbolTable
 70
     4
  0
VPORT
  5
2E
330
8
100
AcDbSymbolTableRecord
100
AcDbViewportTableRecord
  2
*ACTIVE
 70
     0
 10
0.0
 20
0.0
 11
1.0
 21
1.0
 12
210.0
 22
148.5
 13
0.0
 23
0.0
 14
10.0
 24
10.0
 15
10.0
 25
10.0
 16
0.0
 26
0.0
 36
1.0
 17
0.0
 27
0.0
 37
0.0
 40
341.0
 41
1.24
 42
50.0
 43
0.0
 44
0.0
 50
0.0
 51
0.0
 71
     0
 72
   100
 73
     1
 74
     3
 75
     0
 76
     0
 77
     0
 78
     0
  0
ENDTAB
  0
TABLE
  2
LTYPE
  5
5
330
0
100
AcDbSymbolTable
 70
     1
  0
LTYPE
  5
14
330
5
100
AcDbSymbolTableRecord
100
AcDbLinetypeTableRecord
  2
BYBLOCK
 70
     0
  3

 72
    65
 73
     0
 40
0.0
  0
LTYPE
  5
15
330
5
100
AcDbSymbolTableRecord
100
AcDbLinetypeTableRecord
  2
BYLAYER
 70
     0
  3

 72
    65
 73
     0
 40
0.0
  0
LTYPE
  5
16
330
5
100
AcDbSymbolTableRecord
100
AcDbLinetypeTableRecord
  2
CONTINUOUS
 70
     0
  3
Solid line
 72
    65
 73
     0
 40
0.0
  0
ENDTAB
  0
TABLE
  2
LAYER
  5
2
100
AcDbSymbolTable
 70
1
  0
LAYER
  5
50
100
AcDbSymbolTableRecord
100
AcDbLayerTableRecord
  2
0
 70
0
  6
CONTINUOUS
  0
ENDTAB
  0
TABLE
  2
STYLE
  5
3
330
0
100
AcDbSymbolTable
 70
     1
  0
STYLE
  5
11
330
3
100
AcDbSymbolTableRecord
100
AcDbTextStyleTableRecord
  2
STANDARD
 70
     0
 40
0.0
 41
1.0
 50
0.0
 71
     0
 42
2.5
  3
txt
  4

  0
ENDTAB
  0
TABLE
  2
VIEW
  5
6
330
0
100
AcDbSymbolTable
 70
     0
  0
ENDTAB
  0
TABLE
  2
UCS
  5
7
330
0
100
AcDbSymbolTable
 70
     0
  0
ENDTAB
  0
TABLE
  2
APPID
  5
9
330
0
100
AcDbSymbolTable
 70
     2
  0
APPID
  5
12
330
9
100
AcDbSymbolTableRecord
100
AcDbRegAppTableRecord
  2
ACAD
 70
     0
  0
ENDTAB
  0
TABLE
  2
DIMSTYLE
  5
A
330
0
100
AcDbSymbolTable
 70
     1
  0
DIMSTYLE
105
27
330
A
100
AcDbSymbolTableRecord
100
AcDbDimStyleTableRecord
  2
ISO-25
 70
     0
  3

  4

  5

  6

  7

 40
1.0
 41
2.5
 42
0.625
 43
3.75
 44
1.25
 45
0.0
 46
0.0
 47
0.0
 48
0.0
140
2.5
141
2.5
142
0.0
143
0.03937007874016
144
1.0
145
0.0
146
1.0
147
0.625
 71
     0
 72
     0
 73
     0
 74
     0
 75
     0
 76
     0
 77
     1
 78
     8
170
     0
171
     3
172
     1
173
     0
174
     0
175
     0
176
     0
177
     0
178
     0
270
     2
271
     2
272
     2
273
     2
274
     3
340
11
275
     0
280
     0
281
     0
282
     0
283
     0
284
     8
285
     0
286
     0
287
     3
288
     0
  0
ENDTAB
  0
TABLE
  2
BLOCK_RECORD
  5
1
330
0
100
AcDbSymbolTable
 70
     1
  0
BLOCK_RECORD
  5
1F
330
1
100
AcDbSymbolTableRecord
100
AcDbBlockTableRecord
  2
*MODEL_SPACE
  0
BLOCK_RECORD
  5
1B
330
1
100
AcDbSymbolTableRecord
100
AcDbBlockTableRecord
  2
*PAPER_SPACE
  0
ENDTAB
  0
ENDSEC
  0
SECTION
  2
BLOCKS
  0
BLOCK
  5
20
330
1F
100
AcDbEntity
  8
0
100
AcDbBlockBegin
  2
*MODEL_SPACE
 70
     0
 10
0.0
 20
0.0
 30
0.0
  3
*MODEL_SPACE
  1

  0
ENDBLK
  5
21
330
1F
100
AcDbEntity
  8
0
100
AcDbBlockEnd
  0
BLOCK
  5
1C
330
1B
100
AcDbEntity
 67
     1
  8
0
100
AcDbBlockBegin
  2
*PAPER_SPACE
  1

  0
ENDBLK
  5
1D
330
1B
100
AcDbEntity
 67
     1
  8
0
100
AcDbBlockEnd
  0
ENDSEC
  0
SECTION
  2
ENTITIES
  0
SPLINE
  5
100
100
AcDbEntity
  8
0
 62
7
100
AcDbSpline
 70
8
 71
3
 72
8
 73
4
 74
0
 40
0
 40
0
 40
0
 40
0
 40
1
 40
1
 40
1
 40
1
 10
278.834250
 20
986.160985
 30
0.0
 10
278.394787
 20
1003.557748
 30
0.0
 10
274.692516
 20
1020.717306
 30
0.0
 10
267.919880
 20
1036.747710
 30
0.0
  0
SPLINE
  5
101
100
AcDbEntity
  8
0
 62
7
100
AcDbSpline
 70
8
 71
3
 72
8
 73
4
 74
0
 40
0
 40
0
 40
0
 40
0
 40
1
 40
1
 40
1
 40
1
 10
178.902120
 20
982.650745
 30
0.0
 10
178.887488
 20
1004.196647
 30
0.0
 10
161.416604
 20
1021.655296
 30
0.0
 10
139.870235
 20
1021.655296
 30
0.0
  0
SPLINE
  5
102
100
AcDbEntity
  8
0
 62
7
100
AcDbSpline
 70
8
 71
3
 72
8
 73
4
 74
0
 40
0
 40
0
 40
0
 40
0
 40
1
 40
1
 40
1
 40
1
 10
139.870235
 20
1021.655296
 30
0.0
 10
118.323866
 20
1021.655296
 30
0.0
 10
100.852982
 20
1004.196647
 30
0.0
 10
100.838350
 20
982.650745
 30
0.0
  0
SPLINE
  5
103
100
AcDbEntity
  8
0
 62
7
100
AcDbSpline
 70
8
 71
3
 72
8
 73
4
 74
0
 40
0
 40
0
 40
0
 40
0
 40
1
 40
1
 40
1
 40
1
 10
100.838350
 20
982.650745
 30
0.0
 10
100.852982
 20
961.104843
 30
0.0
 10
118.323866
 20
943.646194
 30
0.0
 10
139.870235
 20
943.646194
 30
0.0
  0
SPLINE
  5
104
100
AcDbEntity
  8
0
 62
7
100
AcDbSpline
 70
8
 71
3
 72
8
 73
4
 74
0
 40
0
 40
0
 40
0
 40
0
 40
1
 40
1
 40
1
 40
1
 10
139.870235
 20
943.646194
 30
0.0
 10
161.416604
 20
943.646194
 30
0.0
 10
178.887488
 20
961.104843
 30
0.0
 10
178.902120
 20
982.650745
 30
0.0
  0
LWPOLYLINE
  5
105
100
AcDbEntity
  8
0
 62
7
100
AcDbPolyline
 90
2
 70
0
 10
139.870240
 20
982.650175
 30
0.0
 10
278.878550
 20
982.650175
 30
0.0
  0
LWPOLYLINE
  5
106
100
AcDbEntity
  8
0
 62
7
100
AcDbPolyline
 90
1
 70
1
 10
178.902120
 20
982.650745
 30
0.0
  0
SPLINE
  5
107
100
AcDbEntity
  8
0
 62
7
100
AcDbSpline
 70
8
 71
3
 72
8
 73
4
 74
0
 40
0
 40
0
 40
0
 40
0
 40
1
 40
1
 40
1
 40
1
 10
275.411490
 20
982.650745
 30
0.0
 10
276.334544
 20
982.650745
 30
0.0
 10
277.218495
 20
983.023437
 30
0.0
 10
277.862898
 20
983.684310
 30
0.0
  0
SPLINE
  5
108
100
AcDbEntity
  8
0
 62
7
100
AcDbSpline
 70
8
 71
3
 72
8
 73
4
 74
0
 40
0
 40
0
 40
0
 40
0
 40
1
 40
1
 40
1
 40
1
 10
277.862898
 20
983.684310
 30
0.0
 10
278.507302
 20
984.345184
 30
0.0
 10
278.857560
 20
985.238245
 30
0.0
 10
278.834250
 20
986.160985
 30
0.0
  0
SPLINE
  5
109
100
AcDbEntity
  8
0
 62
7
100
AcDbSpline
 70
8
 71
3
 72
8
 73
4
 74
0
 40
0
 40
0
 40
0
 40
0
 40
1
 40
1
 40
1
 40
1
 10
269.591280
 20
985.986505
 30
0.0
 10
269.639010
 20
984.130504
 30
0.0
 10
271.157346
 20
982.650745
 30
0.0
 10
273.014000
 20
982.650745
 30
0.0
  0
LWPOLYLINE
  5
10a
100
AcDbEntity
  8
0
 62
7
100
AcDbPolyline
 90
2
 70
0
 10
273.013980
 20
982.650175
 30
0.0
 10
275.411530
 20
982.650175
 30
0.0
  0
LWPOLYLINE
  5
10b
100
AcDbEntity
  8
0
 62
7
100
AcDbPolyline
 90
2
 70
0
 10
139.870240
 20
982.650175
 30
0.0
 10
266.715480
 20
1010.025695
 30
0.0
  0
SPLINE
  5
10c
100
AcDbEntity
  8
0
 62
7
100
AcDbSpline
 70
8
 71
3
 72
8
 73
4
 74
0
 40
0
 40
0
 40
0
 40
0
 40
1
 40
1
 40
1
 40
1
 10
269.591280
 20
985.986505
 30
0.0
 10
269.486396
 20
990.064909
 30
0.0
 10
269.189226
 20
994.136098
 30
0.0
 10
268.700760
 20
998.186505
 30
0.0
  0
SPLINE
  5
10d
100
AcDbEntity
  8
0
 62
7
100
AcDbSpline
 70
8
 71
3
 72
8
 73
4
 74
0
 40
0
 40
0
 40
0
 40
0
 40
1
 40
1
 40
1
 40
1
 10
205.072150
 20
974.273215
 30
0.0
 10
205.510716
 20
977.686378
 30
0.0
 10
205.680588
 20
981.128707
 30
0.0
 10
205.580200
 20
984.568465
 30
0.0
  0
SPLINE
  5
10e
100
AcDbEntity
  8
0
 62
7
100
AcDbSpline
 70
8
 71
3
 72
8
 73
4
 74
0
 40
0
 40
0
 40
0
 40
0
 40
1
 40
1
 40
1
 40
1
 10
205.072150
 20
974.273215
 30
0.0
 10
205.510716
 20
977.686378
 30
0.0
 10
205.680588
 20
981.128707
 30
0.0
 10
205.580200
 20
984.568465
 30
0.0
  0
LWPOLYLINE
  5
10f
100
AcDbEntity
  8
0
 62
7
100
AcDbPolyline
 90
2
 70
0
 10
205.580160
 20
984.570625
 30
0.0
 10
268.700840
 20
998.194965
 30
0.0
  0
LWPOLYLINE
  5
110
100
AcDbEntity
  8
0
 62
7
100
AcDbPolyline
 90
3
 70
0
 10
205.528340
 20
979.407155
 30
0.0
 10
232.885800
 20
978.066435
 30
0.0
 10
269.591330
 20
985.983785
 30
0.0
  0
SPLINE
  5
111
100
AcDbEntity
  8
0
 62
7
100
AcDbSpline
 70
8
 71
3
 72
8
 73
4
 74
0
 40
0
 40
0
 40
0
 40
0
 40
1
 40
1
 40
1
 40
1
 10
261.170050
 20
1037.546001
 30
0.0
 10
259.478555
 20
1036.780500
 30
0.0
 10
258.705418
 20
1034.806361
 30
0.0
 10
259.427200
 20
1033.095783
 30
0.0
  0
LWPOLYLINE
  5
112
100
AcDbEntity
  8
0
 62
7
100
AcDbPolyline
 90
2
 70
0
 10
200.525640
 20
1007.996525
 30
0.0
 10
263.646130
 20
1021.620885
 30
0.0
  0
LWPOLYLINE
  5
113
100
AcDbEntity
  8
0
 62
7
100
AcDbPolyline
 90
2
 70
0
 10
261.169970
 20
1037.546141
 30
0.0
 10
263.354250
 20
1038.542614
 30
0.0
  0
SPLINE
  5
114
100
AcDbEntity
  8
0
 62
7
100
AcDbSpline
 70
8
 71
3
 72
8
 73
4
 74
0
 40
0
 40
0
 40
0
 40
0
 40
1
 40
1
 40
1
 40
1
 10
263.646190
 20
1021.613895
 30
0.0
 10
262.421144
 20
1025.505385
 30
0.0
 10
261.013250
 20
1029.336937
 30
0.0
 10
259.427200
 20
1033.095783
 30
0.0
  0
SPLINE
  5
115
100
AcDbEntity
  8
0
 62
7
100
AcDbSpline
 70
8
 71
3
 72
8
 73
4
 74
0
 40
0
 40
0
 40
0
 40
0
 40
1
 40
1
 40
1
 40
1
 10
200.525600
 20
1007.995855
 30
0.0
 10
199.198788
 20
1011.171010
 30
0.0
 10
197.624696
 20
1014.237080
 30
0.0
 10
195.817840
 20
1017.165795
 30
0.0
  0
SPLINE
  5
116
100
AcDbEntity
  8
0
 62
7
100
AcDbSpline
 70
8
 71
3
 72
8
 73
4
 74
0
 40
0
 40
0
 40
0
 40
0
 40
1
 40
1
 40
1
 40
1
 10
267.919880
 20
1036.747710
 30
0.0
 10
267.560657
 20
1037.597982
 30
0.0
 10
266.873330
 20
1038.267193
 30
0.0
 10
266.013757
 20
1038.603592
 30
0.0
  0
SPLINE
  5
117
100
AcDbEntity
  8
0
 62
7
100
AcDbSpline
 70
8
 71
3
 72
8
 73
4
 74
0
 40
0
 40
0
 40
0
 40
0
 40
1
 40
1
 40
1
 40
1
 10
266.013757
 20
1038.603592
 30
0.0
 10
265.154184
 20
1038.939991
 30
0.0
 10
264.195195
 20
1038.915077
 30
0.0
 10
263.354250
 20
1038.534499
 30
0.0
  0
SPLINE
  5
118
100
AcDbEntity
  8
0
 62
7
100
AcDbSpline
 70
8
 71
3
 72
8
 73
4
 74
0
 40
0
 40
0
 40
0
 40
0
 40
1
 40
1
 40
1
 40
1
 10
200.525600
 20
1007.995855
 30
0.0
 10
199.198788
 20
1011.171010
 30
0.0
 10
197.624696
 20
1014.237080
 30
0.0
 10
195.817840
 20
1017.165795
 30
0.0
  0
LWPOLYLINE
  5
119
100
AcDbEntity
  8
0
 62
7
100
AcDbPolyline
 90
3
 70
0
 10
198.351660
 20
1012.670845
 30
0.0
 10
222.718940
 20
1025.190018
 30
0.0
 10
259.427220
 20
1033.089247
 30
0.0
  0
SPLINE
  5
11a
100
AcDbEntity
  8
0
 62
7
100
AcDbSpline
 70
8
 71
3
 72
8
 73
4
 74
0
 40
0
 40
0
 40
0
 40
0
 40
1
 40
1
 40
1
 40
1
 10
227.581370
 20
1078.280482
 30
0.0
 10
224.574659
 20
1081.038099
 30
0.0
 10
221.439566
 20
1083.652387
 30
0.0
 10
218.186540
 20
1086.114633
 30
0.0
  0
LWPOLYLINE
  5
11b
100
AcDbEntity
  8
0
 62
7
100
AcDbPolyline
 90
2
 70
0
 10
195.817890
 20
1017.163985
 30
0.0
 10
243.672630
 20
1060.519128
 30
0.0
  0
SPLINE
  5
11c
100
AcDbEntity
  8
0
 62
7
100
AcDbSpline
 70
8
 71
3
 72
8
 73
4
 74
0
 40
0
 40
0
 40
0
 40
0
 40
1
 40
1
 40
1
 40
1
 10
200.525600
 20
1007.995855
 30
0.0
 10
199.198788
 20
1011.171010
 30
0.0
 10
197.624696
 20
1014.237080
 30
0.0
 10
195.817840
 20
1017.165795
 30
0.0
  0
SPLINE
  5
11d
100
AcDbEntity
  8
0
 62
7
100
AcDbSpline
 70
8
 71
3
 72
8
 73
4
 74
0
 40
0
 40
0
 40
0
 40
0
 40
1
 40
1
 40
1
 40
1
 10
250.544050
 20
1050.398724
 30
0.0
 10
251.513404
 20
1048.815241
 30
0.0
 10
253.568218
 20
1048.292880
 30
0.0
 10
255.176130
 20
1049.221188
 30
0.0
  0
LWPOLYLINE
  5
11e
100
AcDbEntity
  8
0
 62
7
100
AcDbPolyline
 90
2
 70
0
 10
255.176220
 20
1049.213810
 30
0.0
 10
257.252350
 20
1050.427685
 30
0.0
  0
LWPOLYLINE
  5
11f
100
AcDbEntity
  8
0
 62
7
100
AcDbPolyline
 90
2
 70
0
 10
222.718940
 20
1025.190018
 30
0.0
 10
250.544010
 20
1050.391440
 30
0.0
  0
SPLINE
  5
120
100
AcDbEntity
  8
0
 62
7
100
AcDbSpline
 70
8
 71
3
 72
8
 73
4
 74
0
 40
0
 40
0
 40
0
 40
0
 40
1
 40
1
 40
1
 40
1
 10
179.726490
 20
1034.927283
 30
0.0
 10
176.989822
 20
1037.013663
 30
0.0
 10
174.093547
 20
1038.881936
 30
0.0
 10
171.064370
 20
1040.514875
 30
0.0
  0
SPLINE
  5
121
100
AcDbEntity
  8
0
 62
7
100
AcDbSpline
 70
8
 71
3
 72
8
 73
4
 74
0
 40
0
 40
0
 40
0
 40
0
 40
1
 40
1
 40
1
 40
1
 10
179.726490
 20
1034.927283
 30
0.0
 10
176.989822
 20
1037.013663
 30
0.0
 10
174.093547
 20
1038.881936
 30
0.0
 10
171.064370
 20
1040.514875
 30
0.0
  0
LWPOLYLINE
  5
122
100
AcDbEntity
  8
0
 62
7
100
AcDbPolyline
 90
2
 70
0
 10
198.351660
 20
1012.670845
 30
0.0
 10
222.718940
 20
1025.190018
 30
0.0
  0
SPLINE
  5
123
100
AcDbEntity
  8
0
 62
7
100
AcDbSpline
 70
8
 71
3
 72
8
 73
4
 74
0
 40
0
 40
0
 40
0
 40
0
 40
1
 40
1
 40
1
 40
1
 10
258.461430
 20
1055.171201
 30
0.0
 10
249.382279
 20
1070.017515
 30
0.0
 10
237.596057
 20
1083.027035
 30
0.0
 10
223.715410
 20
1093.523530
 30
0.0
  0
LWPOLYLINE
  5
124
100
AcDbEntity
  8
0
 62
7
100
AcDbPolyline
 90
2
 70
0
 10
190.352990
 20
1060.899590
 30
0.0
 10
218.186580
 20
1086.119135
 30
0.0
  0
SPLINE
  5
125
100
AcDbEntity
  8
0
 62
7
100
AcDbSpline
 70
8
 71
3
 72
8
 73
4
 74
0
 40
0
 40
0
 40
0
 40
0
 40
1
 40
1
 40
1
 40
1
 10
223.715410
 20
1093.523530
 30
0.0
 10
222.979168
 20
1094.080270
 30
0.0
 10
222.049318
 20
1094.316160
 30
0.0
 10
221.136709
 20
1094.177711
 30
0.0
  0
SPLINE
  5
126
100
AcDbEntity
  8
0
 62
7
100
AcDbSpline
 70
8
 71
3
 72
8
 73
4
 74
0
 40
0
 40
0
 40
0
 40
0
 40
1
 40
1
 40
1
 40
1
 10
221.136709
 20
1094.177711
 30
0.0
 10
220.224100
 20
1094.039261
 30
0.0
 10
219.406054
 20
1093.538203
 30
0.0
 10
218.868070
 20
1092.788154
 30
0.0
  0
SPLINE
  5
127
100
AcDbEntity
  8
0
 62
7
100
AcDbSpline
 70
8
 71
3
 72
8
 73
4
 74
0
 40
0
 40
0
 40
0
 40
0
 40
1
 40
1
 40
1
 40
1
 10
250.544050
 20
1050.398724
 30
0.0
 10
248.413970
 20
1053.878290
 30
0.0
 10
246.120973
 20
1057.255467
 30
0.0
 10
243.672700
 20
1060.518999
 30
0.0
  0
SPLINE
  5
128
100
AcDbEntity
  8
0
 62
7
100
AcDbSpline
 70
8
 71
3
 72
8
 73
4
 74
0
 40
0
 40
0
 40
0
 40
0
 40
1
 40
1
 40
1
 40
1
 10
217.470720
 20
1090.840049
 30
0.0
 10
216.388599
 20
1089.331371
 30
0.0
 10
216.706141
 20
1087.235149
 30
0.0
 10
218.186540
 20
1086.114633
 30
0.0
  0
SPLINE
  5
129
100
AcDbEntity
  8
0
 62
7
100
AcDbSpline
 70
8
 71
3
 72
8
 73
4
 74
0
 40
0
 40
0
 40
0
 40
0
 40
1
 40
1
 40
1
 40
1
 10
257.252390
 20
1050.419922
 30
0.0
 10
258.051772
 20
1050.881439
 30
0.0
 10
258.630942
 20
1051.646162
 30
0.0
 10
258.858568
 20
1052.540684
 30
0.0
  0
SPLINE
  5
12a
100
AcDbEntity
  8
0
 62
7
100
AcDbSpline
 70
8
 71
3
 72
8
 73
4
 74
0
 40
0
 40
0
 40
0
 40
0
 40
1
 40
1
 40
1
 40
1
 10
258.858568
 20
1052.540684
 30
0.0
 10
259.086194
 20
1053.435207
 30
0.0
 10
258.942990
 20
1054.383742
 30
0.0
 10
258.461430
 20
1055.171201
 30
0.0
  0
SPLINE
  5
12b
100
AcDbEntity
  8
0
 62
7
100
AcDbSpline
 70
8
 71
3
 72
8
 73
4
 74
0
 40
0
 40
0
 40
0
 40
0
 40
1
 40
1
 40
1
 40
1
 10
200.525600
 20
1007.995855
 30
0.0
 10
199.198788
 20
1011.171010
 30
0.0
 10
197.624696
 20
1014.237080
 30
0.0
 10
195.817840
 20
1017.165795
 30
0.0
  0
LWPOLYLINE
  5
12c
100
AcDbEntity
  8
0
 62
7
100
AcDbPolyline
 90
2
 70
0
 10
217.470740
 20
1090.847801
 30
0.0
 10
218.867990
 20
1092.786365
 30
0.0
  0
LWPOLYLINE
  5
12d
100
AcDbEntity
  8
0
 62
7
100
AcDbPolyline
 90
2
 70
0
 10
175.505210
 20
1037.890381
 30
0.0
 10
190.352990
 20
1060.899590
 30
0.0
  0
LWPOLYLINE
  5
12e
100
AcDbEntity
  8
0
 62
7
100
AcDbPolyline
 90
2
 70
0
 10
179.726490
 20
1034.919110
 30
0.0
 10
227.581420
 20
1078.274250
 30
0.0
  0
SPLINE
  5
12f
100
AcDbEntity
  8
0
 62
7
100
AcDbSpline
 70
8
 71
3
 72
8
 73
4
 74
0
 40
0
 40
0
 40
0
 40
0
 40
1
 40
1
 40
1
 40
1
 10
168.014410
 20
1109.323146
 30
0.0
 10
164.031680
 20
1110.207987
 30
0.0
 10
160.009435
 20
1110.904512
 30
0.0
 10
155.961080
 20
1111.410399
 30
0.0
  0
LWPOLYLINE
  5
130
100
AcDbEntity
  8
0
 62
7
100
AcDbPolyline
 90
2
 70
0
 10
171.064330
 20
1040.517412
 30
0.0
 10
190.830940
 20
1101.990061
 30
0.0
  0
SPLINE
  5
131
100
AcDbEntity
  8
0
 62
7
100
AcDbSpline
 70
8
 71
3
 72
8
 73
4
 74
0
 40
0
 40
0
 40
0
 40
0
 40
1
 40
1
 40
1
 40
1
 10
179.726490
 20
1034.927283
 30
0.0
 10
176.989822
 20
1037.013663
 30
0.0
 10
174.093547
 20
1038.881936
 30
0.0
 10
171.064370
 20
1040.514875
 30
0.0
  0
SPLINE
  5
132
100
AcDbEntity
  8
0
 62
7
100
AcDbSpline
 70
8
 71
3
 72
8
 73
4
 74
0
 40
0
 40
0
 40
0
 40
0
 40
1
 40
1
 40
1
 40
1
 10
201.841840
 20
1096.657929
 30
0.0
 10
203.473083
 20
1095.771259
 30
0.0
 10
205.513791
 20
1096.346265
 30
0.0
 10
206.442120
 20
1097.954141
 30
0.0
  0
LWPOLYLINE
  5
133
100
AcDbEntity
  8
0
 62
7
100
AcDbPolyline
 90
2
 70
0
 10
206.442200
 20
1097.949850
 30
0.0
 10
207.640880
 20
1100.033362
 30
0.0
  0
LWPOLYLINE
  5
134
100
AcDbEntity
  8
0
 62
7
100
AcDbPolyline
 90
2
 70
0
 10
190.352990
 20
1060.899590
 30
0.0
 10
201.841890
 20
1096.663506
 30
0.0
  0
SPLINE
  5
135
100
AcDbEntity
  8
0
 62
7
100
AcDbSpline
 70
8
 71
3
 72
8
 73
4
 74
0
 40
0
 40
0
 40
0
 40
0
 40
1
 40
1
 40
1
 40
1
 10
148.247930
 20
1047.851246
 30
0.0
 10
144.834694
 20
1048.289801
 30
0.0
 10
141.392291
 20
1048.459668
 30
0.0
 10
137.952460
 20
1048.359280
 30
0.0
  0
SPLINE
  5
136
100
AcDbEntity
  8
0
 62
7
100
AcDbSpline
 70
8
 71
3
 72
8
 73
4
 74
0
 40
0
 40
0
 40
0
 40
0
 40
1
 40
1
 40
1
 40
1
 10
148.247930
 20
1047.851246
 30
0.0
 10
144.834694
 20
1048.289801
 30
0.0
 10
141.392291
 20
1048.459668
 30
0.0
 10
137.952460
 20
1048.359280
 30
0.0
  0
LWPOLYLINE
  5
137
100
AcDbEntity
  8
0
 62
7
100
AcDbPolyline
 90
2
 70
0
 10
175.505210
 20
1037.890381
 30
0.0
 10
190.352990
 20
1060.899590
 30
0.0
  0
SPLINE
  5
138
100
AcDbEntity
  8
0
 62
7
100
AcDbSpline
 70
8
 71
3
 72
8
 73
4
 74
0
 40
0
 40
0
 40
0
 40
0
 40
1
 40
1
 40
1
 40
1
 10
206.312230
 20
1104.749646
 30
0.0
 10
191.026127
 20
1113.067447
 30
0.0
 10
174.314051
 20
1118.441028
 30
0.0
 10
157.044690
 20
1120.591072
 30
0.0
  0
LWPOLYLINE
  5
139
100
AcDbEntity
  8
0
 62
7
100
AcDbPolyline
 90
2
 70
0
 10
144.460150
 20
1075.665342
 30
0.0
 10
155.961100
 20
1111.411135
 30
0.0
  0
SPLINE
  5
13a
100
AcDbEntity
  8
0
 62
7
100
AcDbSpline
 70
8
 71
3
 72
8
 73
4
 74
0
 40
0
 40
0
 40
0
 40
0
 40
1
 40
1
 40
1
 40
1
 10
157.044690
 20
1120.591072
 30
0.0
 10
156.128711
 20
1120.705112
 30
0.0
 10
155.205490
 20
1120.444486
 30
0.0
 10
154.484372
 20
1119.868294
 30
0.0
  0
SPLINE
  5
13b
100
AcDbEntity
  8
0
 62
7
100
AcDbSpline
 70
8
 71
3
 72
8
 73
4
 74
0
 40
0
 40
0
 40
0
 40
0
 40
1
 40
1
 40
1
 40
1
 10
154.484372
 20
1119.868294
 30
0.0
 10
153.763255
 20
1119.292101
 30
0.0
 10
153.305339
 20
1118.449160
 30
0.0
 10
153.214460
 20
1117.530614
 30
0.0
  0
SPLINE
  5
13c
100
AcDbEntity
  8
0
 62
7
100
AcDbSpline
 70
8
 71
3
 72
8
 73
4
 74
0
 40
0
 40
0
 40
0
 40
0
 40
1
 40
1
 40
1
 40
1
 10
201.841840
 20
1096.657929
 30
0.0
 10
198.257323
 20
1098.606307
 30
0.0
 10
194.582911
 20
1100.384557
 30
0.0
 10
190.830850
 20
1101.986752
 30
0.0
  0
SPLINE
  5
13d
100
AcDbEntity
  8
0
 62
7
100
AcDbSpline
 70
8
 71
3
 72
8
 73
4
 74
0
 40
0
 40
0
 40
0
 40
0
 40
1
 40
1
 40
1
 40
1
 10
152.978420
 20
1115.144826
 30
0.0
 10
152.795631
 20
1113.297230
 30
0.0
 10
154.118754
 20
1111.640619
 30
0.0
 10
155.961080
 20
1111.410399
 30
0.0
  0
SPLINE
  5
13e
100
AcDbEntity
  8
0
 62
7
100
AcDbSpline
 70
8
 71
3
 72
8
 73
4
 74
0
 40
0
 40
0
 40
0
 40
0
 40
1
 40
1
 40
1
 40
1
 10
207.640860
 20
1100.030368
 30
0.0
 10
208.102396
 20
1100.829740
 30
0.0
 10
208.221610
 20
1101.781598
 30
0.0
 10
207.971468
 20
1102.670098
 30
0.0
  0
SPLINE
  5
13f
100
AcDbEntity
  8
0
 62
7
100
AcDbSpline
 70
8
 71
3
 72
8
 73
4
 74
0
 40
0
 40
0
 40
0
 40
0
 40
1
 40
1
 40
1
 40
1
 10
207.971468
 20
1102.670098
 30
0.0
 10
207.721326
 20
1103.558599
 30
0.0
 10
207.123023
 20
1104.308461
 30
0.0
 10
206.312230
 20
1104.749646
 30
0.0
  0
SPLINE
  5
140
100
AcDbEntity
  8
0
 62
7
100
AcDbSpline
 70
8
 71
3
 72
8
 73
4
 74
0
 40
0
 40
0
 40
0
 40
0
 40
1
 40
1
 40
1
 40
1
 10
179.726490
 20
1034.927283
 30
0.0
 10
176.989822
 20
1037.013663
 30
0.0
 10
174.093547
 20
1038.881936
 30
0.0
 10
171.064370
 20
1040.514875
 30
0.0
  0
LWPOLYLINE
  5
141
100
AcDbEntity
  8
0
 62
7
100
AcDbPolyline
 90
2
 70
0
 10
152.978430
 20
1115.143353
 30
0.0
 10
153.214460
 20
1117.534858
 30
0.0
  0
LWPOLYLINE
  5
142
100
AcDbEntity
  8
0
 62
7
100
AcDbPolyline
 90
2
 70
0
 10
143.110170
 20
1048.307940
 30
0.0
 10
144.460150
 20
1075.665342
 30
0.0
  0
LWPOLYLINE
  5
143
100
AcDbEntity
  8
0
 62
7
100
AcDbPolyline
 90
2
 70
0
 10
148.247930
 20
1047.854999
 30
0.0
 10
168.014370
 20
1109.327636
 30
0.0
  0
SPLINE
  5
144
100
AcDbEntity
  8
0
 62
7
100
AcDbSpline
 70
8
 71
3
 72
8
 73
4
 74
0
 40
0
 40
0
 40
0
 40
0
 40
1
 40
1
 40
1
 40
1
 10
100.906250
 20
1106.424039
 30
0.0
 10
97.014669
 20
1105.199015
 30
0.0
 10
93.183028
 20
1103.791146
 30
0.0
 10
89.424095
 20
1102.205125
 30
0.0
  0
LWPOLYLINE
  5
145
100
AcDbEntity
  8
0
 62
7
100
AcDbPolyline
 90
2
 70
0
 10
137.952460
 20
1048.362285
 30
0.0
 10
124.334130
 20
1111.483615
 30
0.0
  0
SPLINE
  5
146
100
AcDbEntity
  8
0
 62
7
100
AcDbSpline
 70
8
 71
3
 72
8
 73
4
 74
0
 40
0
 40
0
 40
0
 40
0
 40
1
 40
1
 40
1
 40
1
 10
148.247930
 20
1047.851246
 30
0.0
 10
144.834694
 20
1048.289801
 30
0.0
 10
141.392291
 20
1048.459668
 30
0.0
 10
137.952460
 20
1048.359280
 30
0.0
  0
SPLINE
  5
147
100
AcDbEntity
  8
0
 62
7
100
AcDbSpline
 70
8
 71
3
 72
8
 73
4
 74
0
 40
0
 40
0
 40
0
 40
0
 40
1
 40
1
 40
1
 40
1
 10
136.534400
 20
1112.368989
 30
0.0
 10
138.390448
 20
1112.416714
 30
0.0
 10
139.870246
 20
1113.935024
 30
0.0
 10
139.870240
 20
1115.791645
 30
0.0
  0
LWPOLYLINE
  5
148
100
AcDbEntity
  8
0
 62
7
100
AcDbPolyline
 90
2
 70
0
 10
139.870240
 20
1115.795562
 30
0.0
 10
139.870240
 20
1118.187091
 30
0.0
  0
LWPOLYLINE
  5
149
100
AcDbEntity
  8
0
 62
7
100
AcDbPolyline
 90
2
 70
0
 10
144.460150
 20
1075.665342
 30
0.0
 10
136.534420
 20
1112.371362
 30
0.0
  0
SPLINE
  5
14a
100
AcDbEntity
  8
0
 62
7
100
AcDbSpline
 70
8
 71
3
 72
8
 73
4
 74
0
 40
0
 40
0
 40
0
 40
0
 40
1
 40
1
 40
1
 40
1
 10
114.524550
 20
1043.304801
 30
0.0
 10
111.349333
 20
1041.978018
 30
0.0
 10
108.283203
 20
1040.403961
 30
0.0
 10
105.354430
 20
1038.597146
 30
0.0
  0
SPLINE
  5
14b
100
AcDbEntity
  8
0
 62
7
100
AcDbSpline
 70
8
 71
3
 72
8
 73
4
 74
0
 40
0
 40
0
 40
0
 40
0
 40
1
 40
1
 40
1
 40
1
 10
114.524550
 20
1043.304801
 30
0.0
 10
111.349333
 20
1041.978018
 30
0.0
 10
108.283203
 20
1040.403961
 30
0.0
 10
105.354430
 20
1038.597146
 30
0.0
  0
LWPOLYLINE
  5
14c
100
AcDbEntity
  8
0
 62
7
100
AcDbPolyline
 90
2
 70
0
 10
143.110170
 20
1048.307940
 30
0.0
 10
144.460150
 20
1075.665342
 30
0.0
  0
SPLINE
  5
14d
100
AcDbEntity
  8
0
 62
7
100
AcDbSpline
 70
8
 71
3
 72
8
 73
4
 74
0
 40
0
 40
0
 40
0
 40
0
 40
1
 40
1
 40
1
 40
1
 10
136.359920
 20
1121.611759
 30
0.0
 10
118.962778
 20
1121.172308
 30
0.0
 10
101.802846
 20
1117.470117
 30
0.0
 10
85.772093
 20
1110.697624
 30
0.0
  0
LWPOLYLINE
  5
14e
100
AcDbEntity
  8
0
 62
7
100
AcDbPolyline
 90
2
 70
0
 10
97.337440
 20
1065.501443
 30
0.0
 10
89.424095
 20
1102.207464
 30
0.0
  0
SPLINE
  5
14f
100
AcDbEntity
  8
0
 62
7
100
AcDbSpline
 70
8
 71
3
 72
8
 73
4
 74
0
 40
0
 40
0
 40
0
 40
0
 40
1
 40
1
 40
1
 40
1
 10
85.772093
 20
1110.697624
 30
0.0
 10
84.921812
 20
1110.338404
 30
0.0
 10
84.252596
 20
1109.651092
 30
0.0
 10
83.916194
 20
1108.791543
 30
0.0
  0
SPLINE
  5
150
100
AcDbEntity
  8
0
 62
7
100
AcDbSpline
 70
8
 71
3
 72
8
 73
4
 74
0
 40
0
 40
0
 40
0
 40
0
 40
1
 40
1
 40
1
 40
1
 10
83.916194
 20
1108.791543
 30
0.0
 10
83.579793
 20
1107.931994
 30
0.0
 10
83.604708
 20
1106.973032
 30
0.0
 10
83.985290
 20
1106.132110
 30
0.0
  0
SPLINE
  5
151
100
AcDbEntity
  8
0
 62
7
100
AcDbSpline
 70
8
 71
3
 72
8
 73
4
 74
0
 40
0
 40
0
 40
0
 40
0
 40
1
 40
1
 40
1
 40
1
 10
136.534400
 20
1112.368989
 30
0.0
 10
132.455903
 20
1112.264122
 30
0.0
 10
128.384620
 20
1111.966971
 30
0.0
 10
124.334120
 20
1111.478529
 30
0.0
  0
SPLINE
  5
152
100
AcDbEntity
  8
0
 62
7
100
AcDbSpline
 70
8
 71
3
 72
8
 73
4
 74
0
 40
0
 40
0
 40
0
 40
0
 40
1
 40
1
 40
1
 40
1
 10
84.973783
 20
1103.947929
 30
0.0
 10
85.739303
 20
1102.256474
 30
0.0
 10
87.713483
 20
1101.483358
 30
0.0
 10
89.424095
 20
1102.205125
 30
0.0
  0
SPLINE
  5
153
100
AcDbEntity
  8
0
 62
7
100
AcDbSpline
 70
8
 71
3
 72
8
 73
4
 74
0
 40
0
 40
0
 40
0
 40
0
 40
1
 40
1
 40
1
 40
1
 10
139.870240
 20
1118.189067
 30
0.0
 10
139.870242
 20
1119.112103
 30
0.0
 10
139.497541
 20
1119.996037
 30
0.0
 10
138.836653
 20
1120.640428
 30
0.0
  0
SPLINE
  5
154
100
AcDbEntity
  8
0
 62
7
100
AcDbSpline
 70
8
 71
3
 72
8
 73
4
 74
0
 40
0
 40
0
 40
0
 40
0
 40
1
 40
1
 40
1
 40
1
 10
138.836653
 20
1120.640428
 30
0.0
 10
138.175764
 20
1121.284819
 30
0.0
 10
137.282681
 20
1121.635070
 30
0.0
 10
136.359920
 20
1121.611759
 30
0.0
  0
SPLINE
  5
155
100
AcDbEntity
  8
0
 62
7
100
AcDbSpline
 70
8
 71
3
 72
8
 73
4
 74
0
 40
0
 40
0
 40
0
 40
0
 40
1
 40
1
 40
1
 40
1
 10
148.247930
 20
1047.851246
 30
0.0
 10
144.834694
 20
1048.289801
 30
0.0
 10
141.392291
 20
1048.459668
 30
0.0
 10
137.952460
 20
1048.359280
 30
0.0
  0
LWPOLYLINE
  5
156
100
AcDbEntity
  8
0
 62
7
100
AcDbPolyline
 90
2
 70
0
 10
84.973801
 20
1103.946736
 30
0.0
 10
83.985290
 20
1106.138962
 30
0.0
  0
LWPOLYLINE
  5
157
100
AcDbEntity
  8
0
 62
7
100
AcDbPolyline
 90
2
 70
0
 10
109.847100
 20
1041.133423
 30
0.0
 10
97.337440
 20
1065.501443
 30
0.0
  0
LWPOLYLINE
  5
158
100
AcDbEntity
  8
0
 62
7
100
AcDbPolyline
 90
2
 70
0
 10
114.524590
 20
1043.307525
 30
0.0
 10
100.906300
 20
1106.428833
 30
0.0
  0
SPLINE
  5
159
100
AcDbEntity
  8
0
 62
7
100
AcDbSpline
 70
8
 71
3
 72
8
 73
4
 74
0
 40
0
 40
0
 40
0
 40
0
 40
1
 40
1
 40
1
 40
1
 10
44.238459
 20
1070.359985
 30
0.0
 10
41.480778
 20
1067.353339
 30
0.0
 10
38.866429
 20
1064.218314
 30
0.0
 10
36.404126
 20
1060.965358
 30
0.0
  0
LWPOLYLINE
  5
15a
100
AcDbEntity
  8
0
 62
7
100
AcDbPolyline
 90
2
 70
0
 10
105.354430
 20
1038.596959
 30
0.0
 10
62.000336
 20
1086.445239
 30
0.0
  0
SPLINE
  5
15b
100
AcDbEntity
  8
0
 62
7
100
AcDbSpline
 70
8
 71
3
 72
8
 73
4
 74
0
 40
0
 40
0
 40
0
 40
0
 40
1
 40
1
 40
1
 40
1
 10
114.524550
 20
1043.304801
 30
0.0
 10
111.349333
 20
1041.978018
 30
0.0
 10
108.283203
 20
1040.403961
 30
0.0
 10
105.354430
 20
1038.597146
 30
0.0
  0
SPLINE
  5
15c
100
AcDbEntity
  8
0
 62
7
100
AcDbSpline
 70
8
 71
3
 72
8
 73
4
 74
0
 40
0
 40
0
 40
0
 40
0
 40
1
 40
1
 40
1
 40
1
 10
72.120781
 20
1093.322180
 30
0.0
 10
73.704290
 20
1094.291509
 30
0.0
 10
74.226666
 20
1096.346266
 30
0.0
 10
73.298353
 20
1097.954141
 30
0.0
  0
LWPOLYLINE
  5
15d
100
AcDbEntity
  8
0
 62
7
100
AcDbPolyline
 90
2
 70
0
 10
73.298281
 20
1097.949850
 30
0.0
 10
72.099603
 20
1100.033362
 30
0.0
  0
LWPOLYLINE
  5
15e
100
AcDbEntity
  8
0
 62
7
100
AcDbPolyline
 90
2
 70
0
 10
97.337440
 20
1065.501443
 30
0.0
 10
72.120800
 20
1093.329897
 30
0.0
  0
SPLINE
  5
15f
100
AcDbEntity
  8
0
 62
7
100
AcDbSpline
 70
8
 71
3
 72
8
 73
4
 74
0
 40
0
 40
0
 40
0
 40
0
 40
1
 40
1
 40
1
 40
1
 10
87.592559
 20
1022.506125
 30
0.0
 10
85.506139
 20
1019.769517
 30
0.0
 10
83.637831
 20
1016.873305
 30
0.0
 10
82.004861
 20
1013.844195
 30
0.0
  0
SPLINE
  5
160
100
AcDbEntity
  8
0
 62
7
100
AcDbSpline
 70
8
 71
3
 72
8
 73
4
 74
0
 40
0
 40
0
 40
0
 40
0
 40
1
 40
1
 40
1
 40
1
 10
87.592559
 20
1022.506125
 30
0.0
 10
85.506139
 20
1019.769517
 30
0.0
 10
83.637831
 20
1016.873305
 30
0.0
 10
82.004861
 20
1013.844195
 30
0.0
  0
LWPOLYLINE
  5
161
100
AcDbEntity
  8
0
 62
7
100
AcDbPolyline
 90
2
 70
0
 10
109.847100
 20
1041.133423
 30
0.0
 10
97.337440
 20
1065.501443
 30
0.0
  0
SPLINE
  5
162
100
AcDbEntity
  8
0
 62
7
100
AcDbSpline
 70
8
 71
3
 72
8
 73
4
 74
0
 40
0
 40
0
 40
0
 40
0
 40
1
 40
1
 40
1
 40
1
 10
67.348207
 20
1101.239392
 30
0.0
 10
52.501575
 20
1092.160435
 30
0.0
 10
39.491777
 20
1080.374465
 30
0.0
 10
28.995058
 20
1066.494115
 30
0.0
  0
LWPOLYLINE
  5
163
100
AcDbEntity
  8
0
 62
7
100
AcDbPolyline
 90
2
 70
0
 10
61.611345
 20
1033.125492
 30
0.0
 10
36.404126
 20
1060.972057
 30
0.0
  0
SPLINE
  5
164
100
AcDbEntity
  8
0
 62
7
100
AcDbSpline
 70
8
 71
3
 72
8
 73
4
 74
0
 40
0
 40
0
 40
0
 40
0
 40
1
 40
1
 40
1
 40
1
 10
28.995058
 20
1066.494115
 30
0.0
 10
28.438298
 20
1065.757889
 30
0.0
 10
28.202397
 20
1064.828053
 30
0.0
 10
28.340848
 20
1063.915458
 30
0.0
  0
SPLINE
  5
165
100
AcDbEntity
  8
0
 62
7
100
AcDbSpline
 70
8
 71
3
 72
8
 73
4
 74
0
 40
0
 40
0
 40
0
 40
0
 40
1
 40
1
 40
1
 40
1
 10
28.340848
 20
1063.915458
 30
0.0
 10
28.479299
 20
1063.002863
 30
0.0
 10
28.980372
 20
1062.184830
 30
0.0
 10
29.730442
 20
1061.646856
 30
0.0
  0
SPLINE
  5
166
100
AcDbEntity
  8
0
 62
7
100
AcDbSpline
 70
8
 71
3
 72
8
 73
4
 74
0
 40
0
 40
0
 40
0
 40
0
 40
1
 40
1
 40
1
 40
1
 10
72.120781
 20
1093.322180
 30
0.0
 10
68.641143
 20
1091.192147
 30
0.0
 10
65.263898
 20
1088.899200
 30
0.0
 10
62.000299
 20
1086.450980
 30
0.0
  0
SPLINE
  5
167
100
AcDbEntity
  8
0
 62
7
100
AcDbSpline
 70
8
 71
3
 72
8
 73
4
 74
0
 40
0
 40
0
 40
0
 40
0
 40
1
 40
1
 40
1
 40
1
 10
31.678604
 20
1060.249578
 30
0.0
 10
33.187309
 20
1059.167472
 30
0.0
 10
35.283578
 20
1059.484996
 30
0.0
 10
36.404126
 20
1060.965358
 30
0.0
  0
SPLINE
  5
168
100
AcDbEntity
  8
0
 62
7
100
AcDbSpline
 70
8
 71
3
 72
8
 73
4
 74
0
 40
0
 40
0
 40
0
 40
0
 40
1
 40
1
 40
1
 40
1
 10
72.099603
 20
1100.030368
 30
0.0
 10
71.638078
 20
1100.829739
 30
0.0
 10
70.873337
 20
1101.408901
 30
0.0
 10
69.978791
 20
1101.636524
 30
0.0
  0
SPLINE
  5
169
100
AcDbEntity
  8
0
 62
7
100
AcDbSpline
 70
8
 71
3
 72
8
 73
4
 74
0
 40
0
 40
0
 40
0
 40
0
 40
1
 40
1
 40
1
 40
1
 10
69.978791
 20
1101.636524
 30
0.0
 10
69.084245
 20
1101.864147
 30
0.0
 10
68.135686
 20
1101.720946
 30
0.0
 10
67.348207
 20
1101.239392
 30
0.0
  0
SPLINE
  5
16a
100
AcDbEntity
  8
0
 62
7
100
AcDbSpline
 70
8
 71
3
 72
8
 73
4
 74
0
 40
0
 40
0
 40
0
 40
0
 40
1
 40
1
 40
1
 40
1
 10
114.524550
 20
1043.304801
 30
0.0
 10
111.349333
 20
1041.978018
 30
0.0
 10
108.283203
 20
1040.403961
 30
0.0
 10
105.354430
 20
1038.597146
 30
0.0
  0
LWPOLYLINE
  5
16b
100
AcDbEntity
  8
0
 62
7
100
AcDbPolyline
 90
2
 70
0
 10
31.678622
 20
1060.247356
 30
0.0
 10
29.730398
 20
1061.642413
 30
0.0
  0
LWPOLYLINE
  5
16c
100
AcDbEntity
  8
0
 62
7
100
AcDbPolyline
 90
2
 70
0
 10
84.628657
 20
1018.287275
 30
0.0
 10
61.611345
 20
1033.125492
 30
0.0
  0
LWPOLYLINE
  5
16d
100
AcDbEntity
  8
0
 62
7
100
AcDbPolyline
 90
2
 70
0
 10
87.592559
 20
1022.508645
 30
0.0
 10
44.238477
 20
1070.356922
 30
0.0
  0
SPLINE
  5
16e
100
AcDbEntity
  8
0
 62
7
100
AcDbSpline
 70
8
 71
3
 72
8
 73
4
 74
0
 40
0
 40
0
 40
0
 40
0
 40
1
 40
1
 40
1
 40
1
 10
13.195120
 20
1010.794295
 30
0.0
 10
12.310254
 20
1006.811655
 30
0.0
 10
11.613707
 20
1002.789500
 30
0.0
 10
11.107803
 20
998.741235
 30
0.0
  0
LWPOLYLINE
  5
16f
100
AcDbEntity
  8
0
 62
7
100
AcDbPolyline
 90
2
 70
0
 10
82.004825
 20
1013.848475
 30
0.0
 10
20.531591
 20
1033.614644
 30
0.0
  0
SPLINE
  5
170
100
AcDbEntity
  8
0
 62
7
100
AcDbSpline
 70
8
 71
3
 72
8
 73
4
 74
0
 40
0
 40
0
 40
0
 40
0
 40
1
 40
1
 40
1
 40
1
 10
87.592559
 20
1022.506125
 30
0.0
 10
85.506139
 20
1019.769517
 30
0.0
 10
83.637831
 20
1016.873305
 30
0.0
 10
82.004861
 20
1013.844195
 30
0.0
  0
SPLINE
  5
171
100
AcDbEntity
  8
0
 62
7
100
AcDbSpline
 70
8
 71
3
 72
8
 73
4
 74
0
 40
0
 40
0
 40
0
 40
0
 40
1
 40
1
 40
1
 40
1
 10
25.860590
 20
1044.621006
 30
0.0
 10
26.747279
 20
1046.252215
 30
0.0
 10
26.172258
 20
1048.292880
 30
0.0
 10
24.564346
 20
1049.221188
 30
0.0
  0
LWPOLYLINE
  5
172
100
AcDbEntity
  8
0
 62
7
100
AcDbPolyline
 90
2
 70
0
 10
24.564267
 20
1049.213810
 30
0.0
 10
22.488140
 20
1050.427685
 30
0.0
  0
LWPOLYLINE
  5
173
100
AcDbEntity
  8
0
 62
7
100
AcDbPolyline
 90
2
 70
0
 10
61.611345
 20
1033.125492
 30
0.0
 10
25.860601
 20
1044.611968
 30
0.0
  0
SPLINE
  5
174
100
AcDbEntity
  8
0
 62
7
100
AcDbSpline
 70
8
 71
3
 72
8
 73
4
 74
0
 40
0
 40
0
 40
0
 40
0
 40
1
 40
1
 40
1
 40
1
 10
74.668318
 20
991.028265
 30
0.0
 10
74.229754
 20
987.615102
 30
0.0
 10
74.059884
 20
984.172773
 30
0.0
 10
74.160275
 20
980.733015
 30
0.0
  0
SPLINE
  5
175
100
AcDbEntity
  8
0
 62
7
100
AcDbSpline
 70
8
 71
3
 72
8
 73
4
 74
0
 40
0
 40
0
 40
0
 40
0
 40
1
 40
1
 40
1
 40
1
 10
74.668318
 20
991.028265
 30
0.0
 10
74.229754
 20
987.615102
 30
0.0
 10
74.059884
 20
984.172773
 30
0.0
 10
74.160275
 20
980.733015
 30
0.0
  0
LWPOLYLINE
  5
176
100
AcDbEntity
  8
0
 62
7
100
AcDbPolyline
 90
2
 70
0
 10
84.628657
 20
1018.287275
 30
0.0
 10
61.611345
 20
1033.125492
 30
0.0
  0
SPLINE
  5
177
100
AcDbEntity
  8
0
 62
7
100
AcDbSpline
 70
8
 71
3
 72
8
 73
4
 74
0
 40
0
 40
0
 40
0
 40
0
 40
1
 40
1
 40
1
 40
1
 10
17.768722
 20
1049.091300
 30
0.0
 10
9.450736
 20
1033.805529
 30
0.0
 10
4.077031
 20
1017.093814
 30
0.0
 10
1.926932
 20
999.824825
 30
0.0
  0
LWPOLYLINE
  5
178
100
AcDbEntity
  8
0
 62
7
100
AcDbPolyline
 90
2
 70
0
 10
46.854699
 20
987.233885
 30
0.0
 10
11.107760
 20
998.738485
 30
0.0
  0
SPLINE
  5
179
100
AcDbEntity
  8
0
 62
7
100
AcDbSpline
 70
8
 71
3
 72
8
 73
4
 74
0
 40
0
 40
0
 40
0
 40
0
 40
1
 40
1
 40
1
 40
1
 10
1.926932
 20
999.824825
 30
0.0
 10
1.812893
 20
998.908865
 30
0.0
 10
2.073527
 20
997.985664
 30
0.0
 10
2.649734
 20
997.264563
 30
0.0
  0
SPLINE
  5
17a
100
AcDbEntity
  8
0
 62
7
100
AcDbSpline
 70
8
 71
3
 72
8
 73
4
 74
0
 40
0
 40
0
 40
0
 40
0
 40
1
 40
1
 40
1
 40
1
 10
2.649734
 20
997.264563
 30
0.0
 10
3.225941
 20
996.543463
 30
0.0
 10
4.068902
 20
996.085559
 30
0.0
 10
4.987469
 20
995.994685
 30
0.0
  0
SPLINE
  5
17b
100
AcDbEntity
  8
0
 62
7
100
AcDbSpline
 70
8
 71
3
 72
8
 73
4
 74
0
 40
0
 40
0
 40
0
 40
0
 40
1
 40
1
 40
1
 40
1
 10
25.860590
 20
1044.621006
 30
0.0
 10
23.912172
 20
1041.036568
 30
0.0
 10
22.133887
 20
1037.362237
 30
0.0
 10
20.531660
 20
1033.610259
 30
0.0
  0
SPLINE
  5
17c
100
AcDbEntity
  8
0
 62
7
100
AcDbSpline
 70
8
 71
3
 72
8
 73
4
 74
0
 40
0
 40
0
 40
0
 40
0
 40
1
 40
1
 40
1
 40
1
 10
7.373294
 20
995.758645
 30
0.0
 10
9.220928
 20
995.575859
 30
0.0
 10
10.877575
 20
996.898950
 30
0.0
 10
11.107803
 20
998.741235
 30
0.0
  0
SPLINE
  5
17d
100
AcDbEntity
  8
0
 62
7
100
AcDbSpline
 70
8
 71
3
 72
8
 73
4
 74
0
 40
0
 40
0
 40
0
 40
0
 40
1
 40
1
 40
1
 40
1
 10
22.488073
 20
1050.419922
 30
0.0
 10
21.688684
 20
1050.881437
 30
0.0
 10
20.736811
 20
1051.000640
 30
0.0
 10
19.848298
 20
1050.750501
 30
0.0
  0
SPLINE
  5
17e
100
AcDbEntity
  8
0
 62
7
100
AcDbSpline
 70
8
 71
3
 72
8
 73
4
 74
0
 40
0
 40
0
 40
0
 40
0
 40
1
 40
1
 40
1
 40
1
 10
19.848298
 20
1050.750501
 30
0.0
 10
18.959785
 20
1050.500361
 30
0.0
 10
18.209913
 20
1049.902071
 30
0.0
 10
17.768722
 20
1049.091300
 30
0.0
  0
SPLINE
  5
17f
100
AcDbEntity
  8
0
 62
7
100
AcDbSpline
 70
8
 71
3
 72
8
 73
4
 74
0
 40
0
 40
0
 40
0
 40
0
 40
1
 40
1
 40
1
 40
1
 10
87.592559
 20
1022.506125
 30
0.0
 10
85.506139
 20
1019.769517
 30
0.0
 10
83.637831
 20
1016.873305
 30
0.0
 10
82.004861
 20
1013.844195
 30
0.0
  0
LWPOLYLINE
  5
180
100
AcDbEntity
  8
0
 62
7
100
AcDbPolyline
 90
2
 70
0
 10
7.373303
 20
995.767215
 30
0.0
 10
4.987542
 20
996.002765
 30
0.0
  0
LWPOLYLINE
  5
181
100
AcDbEntity
  8
0
 62
7
100
AcDbPolyline
 90
2
 70
0
 10
74.212147
 20
985.893205
 30
0.0
 10
46.854699
 20
987.233885
 30
0.0
  0
LWPOLYLINE
  5
182
100
AcDbEntity
  8
0
 62
7
100
AcDbPolyline
 90
2
 70
0
 10
74.668354
 20
991.020455
 30
0.0
 10
13.195120
 20
1010.786615
 30
0.0
  0
SPLINE
  5
183
100
AcDbEntity
  8
0
 62
7
100
AcDbSpline
 70
8
 71
3
 72
8
 73
4
 74
0
 40
0
 40
0
 40
0
 40
0
 40
1
 40
1
 40
1
 40
1
 10
16.094283
 20
943.687585
 30
0.0
 10
17.319330
 20
939.796094
 30
0.0
 10
18.727224
 20
935.964541
 30
0.0
 10
20.313275
 20
932.205695
 30
0.0
  0
LWPOLYLINE
  5
184
100
AcDbEntity
  8
0
 62
7
100
AcDbPolyline
 90
2
 70
0
 10
74.160329
 20
980.729715
 30
0.0
 10
11.039637
 20
967.123485
 30
0.0
  0
SPLINE
  5
185
100
AcDbEntity
  8
0
 62
7
100
AcDbSpline
 70
8
 71
3
 72
8
 73
4
 74
0
 40
0
 40
0
 40
0
 40
0
 40
1
 40
1
 40
1
 40
1
 10
74.668318
 20
991.028265
 30
0.0
 10
74.229754
 20
987.615102
 30
0.0
 10
74.059884
 20
984.172773
 30
0.0
 10
74.160275
 20
980.733015
 30
0.0
  0
SPLINE
  5
186
100
AcDbEntity
  8
0
 62
7
100
AcDbSpline
 70
8
 71
3
 72
8
 73
4
 74
0
 40
0
 40
0
 40
0
 40
0
 40
1
 40
1
 40
1
 40
1
 10
10.149183
 20
979.314985
 30
0.0
 10
10.101453
 20
981.170985
 30
0.0
 10
8.583118
 20
982.650745
 30
0.0
 10
6.726464
 20
982.650745
 30
0.0
  0
LWPOLYLINE
  5
187
100
AcDbEntity
  8
0
 62
7
100
AcDbPolyline
 90
2
 70
0
 10
6.726495
 20
982.650175
 30
0.0
 10
4.328957
 20
982.650175
 30
0.0
  0
LWPOLYLINE
  5
188
100
AcDbEntity
  8
0
 62
7
100
AcDbPolyline
 90
2
 70
0
 10
46.854699
 20
987.233885
 30
0.0
 10
10.149143
 20
979.316565
 30
0.0
  0
SPLINE
  5
189
100
AcDbEntity
  8
0
 62
7
100
AcDbSpline
 70
8
 71
3
 72
8
 73
4
 74
0
 40
0
 40
0
 40
0
 40
0
 40
1
 40
1
 40
1
 40
1
 10
79.214872
 20
957.305615
 30
0.0
 10
80.541686
 20
954.130460
 30
0.0
 10
82.115780
 20
951.064390
 30
0.0
 10
83.922638
 20
948.135675
 30
0.0
  0
SPLINE
  5
18a
100
AcDbEntity
  8
0
 62
7
100
AcDbSpline
 70
8
 71
3
 72
8
 73
4
 74
0
 40
0
 40
0
 40
0
 40
0
 40
1
 40
1
 40
1
 40
1
 10
79.214872
 20
957.305615
 30
0.0
 10
80.541686
 20
954.130460
 30
0.0
 10
82.115780
 20
951.064390
 30
0.0
 10
83.922638
 20
948.135675
 30
0.0
  0
LWPOLYLINE
  5
18b
100
AcDbEntity
  8
0
 62
7
100
AcDbPolyline
 90
2
 70
0
 10
74.212147
 20
985.893205
 30
0.0
 10
46.854699
 20
987.233885
 30
0.0
  0
SPLINE
  5
18c
100
AcDbEntity
  8
0
 62
7
100
AcDbSpline
 70
8
 71
3
 72
8
 73
4
 74
0
 40
0
 40
0
 40
0
 40
0
 40
1
 40
1
 40
1
 40
1
 10
0.906233
 20
979.140505
 30
0.0
 10
1.345696
 20
961.743740
 30
0.0
 10
5.047967
 20
944.584180
 30
0.0
 10
11.820604
 20
928.553775
 30
0.0
  0
LWPOLYLINE
  5
18d
100
AcDbEntity
  8
0
 62
7
100
AcDbPolyline
 90
2
 70
0
 10
57.021544
 20
940.110325
 30
0.0
 10
20.313270
 20
932.211085
 30
0.0
  0
SPLINE
  5
18e
100
AcDbEntity
  8
0
 62
7
100
AcDbSpline
 70
8
 71
3
 72
8
 73
4
 74
0
 40
0
 40
0
 40
0
 40
0
 40
1
 40
1
 40
1
 40
1
 10
11.820604
 20
928.553775
 30
0.0
 10
12.179829
 20
927.703508
 30
0.0
 10
12.867155
 20
927.034301
 30
0.0
 10
13.726725
 20
926.697904
 30
0.0
  0
SPLINE
  5
18f
100
AcDbEntity
  8
0
 62
7
100
AcDbSpline
 70
8
 71
3
 72
8
 73
4
 74
0
 40
0
 40
0
 40
0
 40
0
 40
1
 40
1
 40
1
 40
1
 10
13.726725
 20
926.697904
 30
0.0
 10
14.586294
 20
926.361507
 30
0.0
 10
15.545279
 20
926.386420
 30
0.0
 10
16.386222
 20
926.766995
 30
0.0
  0
SPLINE
  5
190
100
AcDbEntity
  8
0
 62
7
100
AcDbSpline
 70
8
 71
3
 72
8
 73
4
 74
0
 40
0
 40
0
 40
0
 40
0
 40
1
 40
1
 40
1
 40
1
 10
10.149183
 20
979.314985
 30
0.0
 10
10.254063
 20
975.236578
 30
0.0
 10
10.551230
 20
971.165385
 30
0.0
 10
11.039693
 20
967.114975
 30
0.0
  0
SPLINE
  5
191
100
AcDbEntity
  8
0
 62
7
100
AcDbSpline
 70
8
 71
3
 72
8
 73
4
 74
0
 40
0
 40
0
 40
0
 40
0
 40
1
 40
1
 40
1
 40
1
 10
18.570425
 20
927.755485
 30
0.0
 10
20.261916
 20
928.520985
 30
0.0
 10
21.035052
 20
930.495119
 30
0.0
 10
20.313275
 20
932.205695
 30
0.0
  0
SPLINE
  5
192
100
AcDbEntity
  8
0
 62
7
100
AcDbSpline
 70
8
 71
3
 72
8
 73
4
 74
0
 40
0
 40
0
 40
0
 40
0
 40
1
 40
1
 40
1
 40
1
 10
4.328991
 20
982.650745
 30
0.0
 10
3.405938
 20
982.650745
 30
0.0
 10
2.521987
 20
982.278052
 30
0.0
 10
1.877584
 20
981.617179
 30
0.0
  0
SPLINE
  5
193
100
AcDbEntity
  8
0
 62
7
100
AcDbSpline
 70
8
 71
3
 72
8
 73
4
 74
0
 40
0
 40
0
 40
0
 40
0
 40
1
 40
1
 40
1
 40
1
 10
1.877584
 20
981.617179
 30
0.0
 10
1.233181
 20
980.956306
 30
0.0
 10
0.882923
 20
980.063244
 30
0.0
 10
0.906233
 20
979.140505
 30
0.0
  0
SPLINE
  5
194
100
AcDbEntity
  8
0
 62
7
100
AcDbSpline
 70
8
 71
3
 72
8
 73
4
 74
0
 40
0
 40
0
 40
0
 40
0
 40
1
 40
1
 40
1
 40
1
 10
74.668318
 20
991.028265
 30
0.0
 10
74.229754
 20
987.615102
 30
0.0
 10
74.059884
 20
984.172773
 30
0.0
 10
74.160275
 20
980.733015
 30
0.0
  0
LWPOLYLINE
  5
195
100
AcDbEntity
  8
0
 62
7
100
AcDbPolyline
 90
2
 70
0
 10
18.570512
 20
927.754185
 30
0.0
 10
16.386222
 20
926.775835
 30
0.0
  0
LWPOLYLINE
  5
196
100
AcDbEntity
  8
0
 62
7
100
AcDbPolyline
 90
2
 70
0
 10
81.388818
 20
952.629505
 30
0.0
 10
57.021544
 20
940.110325
 30
0.0
  0
LWPOLYLINE
  5
197
100
AcDbEntity
  8
0
 62
7
100
AcDbPolyline
 90
2
 70
0
 10
79.214853
 20
957.303805
 30
0.0
 10
16.094343
 20
943.679455
 30
0.0
  0
SPLINE
  5
198
100
AcDbEntity
  8
0
 62
7
100
AcDbSpline
 70
8
 71
3
 72
8
 73
4
 74
0
 40
0
 40
0
 40
0
 40
0
 40
1
 40
1
 40
1
 40
1
 10
52.159105
 20
887.021015
 30
0.0
 10
55.165820
 20
884.263398
 30
0.0
 10
58.300917
 20
881.649110
 30
0.0
 10
61.553947
 20
879.186865
 30
0.0
  0
LWPOLYLINE
  5
199
100
AcDbEntity
  8
0
 62
7
100
AcDbPolyline
 90
2
 70
0
 10
83.922602
 20
948.136365
 30
0.0
 10
36.067858
 20
904.781215
 30
0.0
  0
SPLINE
  5
19a
100
AcDbEntity
  8
0
 62
7
100
AcDbSpline
 70
8
 71
3
 72
8
 73
4
 74
0
 40
0
 40
0
 40
0
 40
0
 40
1
 40
1
 40
1
 40
1
 10
79.214872
 20
957.305615
 30
0.0
 10
80.541686
 20
954.130460
 30
0.0
 10
82.115780
 20
951.064390
 30
0.0
 10
83.922638
 20
948.135675
 30
0.0
  0
SPLINE
  5
19b
100
AcDbEntity
  8
0
 62
7
100
AcDbSpline
 70
8
 71
3
 72
8
 73
4
 74
0
 40
0
 40
0
 40
0
 40
0
 40
1
 40
1
 40
1
 40
1
 10
29.196424
 20
914.902775
 30
0.0
 10
28.227062
 20
916.486247
 30
0.0
 10
26.172250
 20
917.008596
 30
0.0
 10
24.564346
 20
916.080285
 30
0.0
  0
LWPOLYLINE
  5
19c
100
AcDbEntity
  8
0
 62
7
100
AcDbPolyline
 90
2
 70
0
 10
24.564267
 20
916.086515
 30
0.0
 10
22.488140
 20
914.872645
 30
0.0
  0
LWPOLYLINE
  5
19d
100
AcDbEntity
  8
0
 62
7
100
AcDbPolyline
 90
2
 70
0
 10
57.021544
 20
940.110325
 30
0.0
 10
29.196464
 20
914.908885
 30
0.0
  0
SPLINE
  5
19e
100
AcDbEntity
  8
0
 62
7
100
AcDbSpline
 70
8
 71
3
 72
8
 73
4
 74
0
 40
0
 40
0
 40
0
 40
0
 40
1
 40
1
 40
1
 40
1
 10
100.013980
 20
930.374195
 30
0.0
 10
102.750648
 20
928.287816
 30
0.0
 10
105.646923
 20
926.419543
 30
0.0
 10
108.676100
 20
924.786605
 30
0.0
  0
SPLINE
  5
19f
100
AcDbEntity
  8
0
 62
7
100
AcDbSpline
 70
8
 71
3
 72
8
 73
4
 74
0
 40
0
 40
0
 40
0
 40
0
 40
1
 40
1
 40
1
 40
1
 10
100.013980
 20
930.374195
 30
0.0
 10
102.750648
 20
928.287816
 30
0.0
 10
105.646923
 20
926.419543
 30
0.0
 10
108.676100
 20
924.786605
 30
0.0
  0
LWPOLYLINE
  5
1a0
100
AcDbEntity
  8
0
 62
7
100
AcDbPolyline
 90
2
 70
0
 10
81.388818
 20
952.629505
 30
0.0
 10
57.021544
 20
940.110325
 30
0.0
  0
SPLINE
  5
1a1
100
AcDbEntity
  8
0
 62
7
100
AcDbSpline
 70
8
 71
3
 72
8
 73
4
 74
0
 40
0
 40
0
 40
0
 40
0
 40
1
 40
1
 40
1
 40
1
 10
21.279032
 20
910.130275
 30
0.0
 10
30.358186
 20
895.283960
 30
0.0
 10
42.144411
 20
882.274439
 30
0.0
 10
56.025061
 20
871.777945
 30
0.0
  0
LWPOLYLINE
  5
1a2
100
AcDbEntity
  8
0
 62
7
100
AcDbPolyline
 90
2
 70
0
 10
89.387498
 20
904.400745
 30
0.0
 10
61.553911
 20
879.181215
 30
0.0
  0
SPLINE
  5
1a3
100
AcDbEntity
  8
0
 62
7
100
AcDbSpline
 70
8
 71
3
 72
8
 73
4
 74
0
 40
0
 40
0
 40
0
 40
0
 40
1
 40
1
 40
1
 40
1
 10
56.025061
 20
871.777945
 30
0.0
 10
56.761302
 20
871.221203
 30
0.0
 10
57.691154
 20
870.985310
 30
0.0
 10
58.603765
 20
871.123758
 30
0.0
  0
SPLINE
  5
1a4
100
AcDbEntity
  8
0
 62
7
100
AcDbSpline
 70
8
 71
3
 72
8
 73
4
 74
0
 40
0
 40
0
 40
0
 40
0
 40
1
 40
1
 40
1
 40
1
 10
58.603765
 20
871.123758
 30
0.0
 10
59.516376
 20
871.262206
 30
0.0
 10
60.334423
 20
871.763265
 30
0.0
 10
60.872408
 20
872.513315
 30
0.0
  0
SPLINE
  5
1a5
100
AcDbEntity
  8
0
 62
7
100
AcDbSpline
 70
8
 71
3
 72
8
 73
4
 74
0
 40
0
 40
0
 40
0
 40
0
 40
1
 40
1
 40
1
 40
1
 10
29.196424
 20
914.902775
 30
0.0
 10
31.326501
 20
911.423200
 30
0.0
 10
33.619496
 20
908.046015
 30
0.0
 10
36.067767
 20
904.782475
 30
0.0
  0
SPLINE
  5
1a6
100
AcDbEntity
  8
0
 62
7
100
AcDbSpline
 70
8
 71
3
 72
8
 73
4
 74
0
 40
0
 40
0
 40
0
 40
0
 40
1
 40
1
 40
1
 40
1
 10
62.269748
 20
874.461425
 30
0.0
 10
63.351889
 20
875.970102
 30
0.0
 10
63.034355
 20
878.066341
 30
0.0
 10
61.553947
 20
879.186865
 30
0.0
  0
SPLINE
  5
1a7
100
AcDbEntity
  8
0
 62
7
100
AcDbSpline
 70
8
 71
3
 72
8
 73
4
 74
0
 40
0
 40
0
 40
0
 40
0
 40
1
 40
1
 40
1
 40
1
 10
22.488073
 20
914.881575
 30
0.0
 10
21.688685
 20
914.420059
 30
0.0
 10
21.109511
 20
913.655332
 30
0.0
 10
20.881884
 20
912.760804
 30
0.0
  0
SPLINE
  5
1a8
100
AcDbEntity
  8
0
 62
7
100
AcDbSpline
 70
8
 71
3
 72
8
 73
4
 74
0
 40
0
 40
0
 40
0
 40
0
 40
1
 40
1
 40
1
 40
1
 10
20.881884
 20
912.760804
 30
0.0
 10
20.654258
 20
911.866276
 30
0.0
 10
20.797465
 20
910.917736
 30
0.0
 10
21.279032
 20
910.130275
 30
0.0
  0
SPLINE
  5
1a9
100
AcDbEntity
  8
0
 62
7
100
AcDbSpline
 70
8
 71
3
 72
8
 73
4
 74
0
 40
0
 40
0
 40
0
 40
0
 40
1
 40
1
 40
1
 40
1
 10
79.214872
 20
957.305615
 30
0.0
 10
80.541686
 20
954.130460
 30
0.0
 10
82.115780
 20
951.064390
 30
0.0
 10
83.922638
 20
948.135675
 30
0.0
  0
LWPOLYLINE
  5
1aa
100
AcDbEntity
  8
0
 62
7
100
AcDbPolyline
 90
2
 70
0
 10
62.269748
 20
874.452545
 30
0.0
 10
60.872498
 20
872.513975
 30
0.0
  0
LWPOLYLINE
  5
1ab
100
AcDbEntity
  8
0
 62
7
100
AcDbPolyline
 90
2
 70
0
 10
104.235280
 20
927.409945
 30
0.0
 10
89.387498
 20
904.400745
 30
0.0
  0
LWPOLYLINE
  5
1ac
100
AcDbEntity
  8
0
 62
7
100
AcDbPolyline
 90
2
 70
0
 10
100.013990
 20
930.381215
 30
0.0
 10
52.159068
 20
887.026075
 30
0.0
  0
SPLINE
  5
1ad
100
AcDbEntity
  8
0
 62
7
100
AcDbSpline
 70
8
 71
3
 72
8
 73
4
 74
0
 40
0
 40
0
 40
0
 40
0
 40
1
 40
1
 40
1
 40
1
 10
111.726060
 20
855.978355
 30
0.0
 10
115.708790
 20
855.093508
 30
0.0
 10
119.731034
 20
854.396978
 30
0.0
 10
123.779390
 20
853.891085
 30
0.0
  0
LWPOLYLINE
  5
1ae
100
AcDbEntity
  8
0
 62
7
100
AcDbPolyline
 90
2
 70
0
 10
108.676150
 20
924.782915
 30
0.0
 10
88.909548
 20
863.310285
 30
0.0
  0
SPLINE
  5
1af
100
AcDbEntity
  8
0
 62
7
100
AcDbSpline
 70
8
 71
3
 72
8
 73
4
 74
0
 40
0
 40
0
 40
0
 40
0
 40
1
 40
1
 40
1
 40
1
 10
100.013980
 20
930.374195
 30
0.0
 10
102.750648
 20
928.287816
 30
0.0
 10
105.646923
 20
926.419543
 30
0.0
 10
108.676100
 20
924.786605
 30
0.0
  0
SPLINE
  5
1b0
100
AcDbEntity
  8
0
 62
7
100
AcDbSpline
 70
8
 71
3
 72
8
 73
4
 74
0
 40
0
 40
0
 40
0
 40
0
 40
1
 40
1
 40
1
 40
1
 10
77.898626
 20
868.643545
 30
0.0
 10
76.267388
 20
869.530213
 30
0.0
 10
74.226686
 20
868.955212
 30
0.0
 10
73.298353
 20
867.347345
 30
0.0
  0
LWPOLYLINE
  5
1b1
100
AcDbEntity
  8
0
 62
7
100
AcDbPolyline
 90
2
 70
0
 10
73.298281
 20
867.350475
 30
0.0
 10
72.099603
 20
865.266965
 30
0.0
  0
LWPOLYLINE
  5
1b2
100
AcDbEntity
  8
0
 62
7
100
AcDbPolyline
 90
2
 70
0
 10
89.387498
 20
904.400745
 30
0.0
 10
77.898590
 20
868.636825
 30
0.0
  0
SPLINE
  5
1b3
100
AcDbEntity
  8
0
 62
7
100
AcDbSpline
 70
8
 71
3
 72
8
 73
4
 74
0
 40
0
 40
0
 40
0
 40
0
 40
1
 40
1
 40
1
 40
1
 10
131.492540
 20
917.450225
 30
0.0
 10
134.905776
 20
917.011671
 30
0.0
 10
138.348179
 20
916.841806
 30
0.0
 10
141.788010
 20
916.942195
 30
0.0
  0
SPLINE
  5
1b4
100
AcDbEntity
  8
0
 62
7
100
AcDbSpline
 70
8
 71
3
 72
8
 73
4
 74
0
 40
0
 40
0
 40
0
 40
0
 40
1
 40
1
 40
1
 40
1
 10
131.492540
 20
917.450225
 30
0.0
 10
134.905776
 20
917.011671
 30
0.0
 10
138.348179
 20
916.841806
 30
0.0
 10
141.788010
 20
916.942195
 30
0.0
  0
LWPOLYLINE
  5
1b5
100
AcDbEntity
  8
0
 62
7
100
AcDbPolyline
 90
2
 70
0
 10
104.235280
 20
927.409945
 30
0.0
 10
89.387498
 20
904.400745
 30
0.0
  0
SPLINE
  5
1b6
100
AcDbEntity
  8
0
 62
7
100
AcDbSpline
 70
8
 71
3
 72
8
 73
4
 74
0
 40
0
 40
0
 40
0
 40
0
 40
1
 40
1
 40
1
 40
1
 10
73.428258
 20
860.551855
 30
0.0
 10
88.714354
 20
852.234052
 30
0.0
 10
105.426424
 20
846.860466
 30
0.0
 10
122.695780
 20
844.710415
 30
0.0
  0
LWPOLYLINE
  5
1b7
100
AcDbEntity
  8
0
 62
7
100
AcDbPolyline
 90
2
 70
0
 10
135.280330
 20
889.634985
 30
0.0
 10
123.779390
 20
853.889195
 30
0.0
  0
SPLINE
  5
1b8
100
AcDbEntity
  8
0
 62
7
100
AcDbSpline
 70
8
 71
3
 72
8
 73
4
 74
0
 40
0
 40
0
 40
0
 40
0
 40
1
 40
1
 40
1
 40
1
 10
122.695780
 20
844.710415
 30
0.0
 10
123.611760
 20
844.596375
 30
0.0
 10
124.534984
 20
844.857003
 30
0.0
 10
125.256102
 20
845.433198
 30
0.0
  0
SPLINE
  5
1b9
100
AcDbEntity
  8
0
 62
7
100
AcDbSpline
 70
8
 71
3
 72
8
 73
4
 74
0
 40
0
 40
0
 40
0
 40
0
 40
1
 40
1
 40
1
 40
1
 10
125.256102
 20
845.433198
 30
0.0
 10
125.977219
 20
846.009393
 30
0.0
 10
126.435134
 20
846.852337
 30
0.0
 10
126.526010
 20
847.770885
 30
0.0
  0
SPLINE
  5
1ba
100
AcDbEntity
  8
0
 62
7
100
AcDbSpline
 70
8
 71
3
 72
8
 73
4
 74
0
 40
0
 40
0
 40
0
 40
0
 40
1
 40
1
 40
1
 40
1
 10
77.898626
 20
868.643545
 30
0.0
 10
81.483144
 20
866.695168
 30
0.0
 10
85.157557
 20
864.916919
 30
0.0
 10
88.909620
 20
863.314725
 30
0.0
  0
SPLINE
  5
1bb
100
AcDbEntity
  8
0
 62
7
100
AcDbSpline
 70
8
 71
3
 72
8
 73
4
 74
0
 40
0
 40
0
 40
0
 40
0
 40
1
 40
1
 40
1
 40
1
 10
126.762050
 20
850.156645
 30
0.0
 10
126.944847
 20
852.004246
 30
0.0
 10
125.621722
 20
853.660865
 30
0.0
 10
123.779390
 20
853.891085
 30
0.0
  0
SPLINE
  5
1bc
100
AcDbEntity
  8
0
 62
7
100
AcDbSpline
 70
8
 71
3
 72
8
 73
4
 74
0
 40
0
 40
0
 40
0
 40
0
 40
1
 40
1
 40
1
 40
1
 10
72.099603
 20
865.271115
 30
0.0
 10
71.638075
 20
864.471742
 30
0.0
 10
71.518868
 20
863.519886
 30
0.0
 10
71.769014
 20
862.631389
 30
0.0
  0
SPLINE
  5
1bd
100
AcDbEntity
  8
0
 62
7
100
AcDbSpline
 70
8
 71
3
 72
8
 73
4
 74
0
 40
0
 40
0
 40
0
 40
0
 40
1
 40
1
 40
1
 40
1
 10
71.769014
 20
862.631389
 30
0.0
 10
72.019160
 20
861.742893
 30
0.0
 10
72.617466
 20
860.993036
 30
0.0
 10
73.428258
 20
860.551855
 30
0.0
  0
SPLINE
  5
1be
100
AcDbEntity
  8
0
 62
7
100
AcDbSpline
 70
8
 71
3
 72
8
 73
4
 74
0
 40
0
 40
0
 40
0
 40
0
 40
1
 40
1
 40
1
 40
1
 10
100.013980
 20
930.374195
 30
0.0
 10
102.750648
 20
928.287816
 30
0.0
 10
105.646923
 20
926.419543
 30
0.0
 10
108.676100
 20
924.786605
 30
0.0
  0
LWPOLYLINE
  5
1bf
100
AcDbEntity
  8
0
 62
7
100
AcDbPolyline
 90
2
 70
0
 10
126.762050
 20
850.156995
 30
0.0
 10
126.526030
 20
847.765465
 30
0.0
  0
LWPOLYLINE
  5
1c0
100
AcDbEntity
  8
0
 62
7
100
AcDbPolyline
 90
2
 70
0
 10
136.630310
 20
916.992395
 30
0.0
 10
135.280330
 20
889.634985
 30
0.0
  0
LWPOLYLINE
  5
1c1
100
AcDbEntity
  8
0
 62
7
100
AcDbPolyline
 90
2
 70
0
 10
131.492560
 20
917.445325
 30
0.0
 10
111.726110
 20
855.972705
 30
0.0
  0
SPLINE
  5
1c2
100
AcDbEntity
  8
0
 62
7
100
AcDbSpline
 70
8
 71
3
 72
8
 73
4
 74
0
 40
0
 40
0
 40
0
 40
0
 40
1
 40
1
 40
1
 40
1
 10
178.834220
 20
858.877445
 30
0.0
 10
182.725802
 20
860.102468
 30
0.0
 10
186.557445
 20
861.510335
 30
0.0
 10
190.316380
 20
863.096355
 30
0.0
  0
LWPOLYLINE
  5
1c3
100
AcDbEntity
  8
0
 62
7
100
AcDbPolyline
 90
2
 70
0
 10
141.788030
 20
916.938055
 30
0.0
 10
155.406350
 20
853.816725
 30
0.0
  0
SPLINE
  5
1c4
100
AcDbEntity
  8
0
 62
7
100
AcDbSpline
 70
8
 71
3
 72
8
 73
4
 74
0
 40
0
 40
0
 40
0
 40
0
 40
1
 40
1
 40
1
 40
1
 10
131.492540
 20
917.450225
 30
0.0
 10
134.905776
 20
917.011671
 30
0.0
 10
138.348179
 20
916.841806
 30
0.0
 10
141.788010
 20
916.942195
 30
0.0
  0
SPLINE
  5
1c5
100
AcDbEntity
  8
0
 62
7
100
AcDbSpline
 70
8
 71
3
 72
8
 73
4
 74
0
 40
0
 40
0
 40
0
 40
0
 40
1
 40
1
 40
1
 40
1
 10
143.206070
 20
852.932485
 30
0.0
 10
141.350025
 20
852.884755
 30
0.0
 10
139.870232
 20
851.366444
 30
0.0
 10
139.870240
 20
849.509825
 30
0.0
  0
LWPOLYLINE
  5
1c6
100
AcDbEntity
  8
0
 62
7
100
AcDbPolyline
 90
2
 70
0
 10
139.870240
 20
849.504765
 30
0.0
 10
139.870240
 20
847.113255
 30
0.0
  0
LWPOLYLINE
  5
1c7
100
AcDbEntity
  8
0
 62
7
100
AcDbPolyline
 90
2
 70
0
 10
135.280330
 20
889.634985
 30
0.0
 10
143.206070
 20
852.928965
 30
0.0
  0
SPLINE
  5
1c8
100
AcDbEntity
  8
0
 62
7
100
AcDbSpline
 70
8
 71
3
 72
8
 73
4
 74
0
 40
0
 40
0
 40
0
 40
0
 40
1
 40
1
 40
1
 40
1
 10
165.215910
 20
921.996685
 30
0.0
 10
168.391131
 20
923.323473
 30
0.0
 10
171.457264
 20
924.897534
 30
0.0
 10
174.386040
 20
926.704355
 30
0.0
  0
SPLINE
  5
1c9
100
AcDbEntity
  8
0
 62
7
100
AcDbSpline
 70
8
 71
3
 72
8
 73
4
 74
0
 40
0
 40
0
 40
0
 40
0
 40
1
 40
1
 40
1
 40
1
 10
165.215910
 20
921.996685
 30
0.0
 10
168.391131
 20
923.323473
 30
0.0
 10
171.457264
 20
924.897534
 30
0.0
 10
174.386040
 20
926.704355
 30
0.0
  0
LWPOLYLINE
  5
1ca
100
AcDbEntity
  8
0
 62
7
100
AcDbPolyline
 90
2
 70
0
 10
136.630310
 20
916.992395
 30
0.0
 10
135.280330
 20
889.634985
 30
0.0
  0
SPLINE
  5
1cb
100
AcDbEntity
  8
0
 62
7
100
AcDbSpline
 70
8
 71
3
 72
8
 73
4
 74
0
 40
0
 40
0
 40
0
 40
0
 40
1
 40
1
 40
1
 40
1
 10
143.380550
 20
843.689715
 30
0.0
 10
160.777693
 20
844.129164
 30
0.0
 10
177.937626
 20
847.831354
 30
0.0
 10
193.968380
 20
854.603845
 30
0.0
  0
LWPOLYLINE
  5
1cc
100
AcDbEntity
  8
0
 62
7
100
AcDbPolyline
 90
2
 70
0
 10
182.403050
 20
899.798895
 30
0.0
 10
190.316390
 20
863.092875
 30
0.0
  0
SPLINE
  5
1cd
100
AcDbEntity
  8
0
 62
7
100
AcDbSpline
 70
8
 71
3
 72
8
 73
4
 74
0
 40
0
 40
0
 40
0
 40
0
 40
1
 40
1
 40
1
 40
1
 10
193.968380
 20
854.603845
 30
0.0
 10
194.818671
 20
854.963062
 30
0.0
 10
195.487896
 20
855.650376
 30
0.0
 10
195.824301
 20
856.509932
 30
0.0
  0
SPLINE
  5
1ce
100
AcDbEntity
  8
0
 62
7
100
AcDbSpline
 70
8
 71
3
 72
8
 73
4
 74
0
 40
0
 40
0
 40
0
 40
0
 40
1
 40
1
 40
1
 40
1
 10
195.824301
 20
856.509932
 30
0.0
 10
196.160707
 20
857.369488
 30
0.0
 10
196.135789
 20
858.328458
 30
0.0
 10
195.755200
 20
859.169385
 30
0.0
  0
SPLINE
  5
1cf
100
AcDbEntity
  8
0
 62
7
100
AcDbSpline
 70
8
 71
3
 72
8
 73
4
 74
0
 40
0
 40
0
 40
0
 40
0
 40
1
 40
1
 40
1
 40
1
 10
143.206070
 20
852.932485
 30
0.0
 10
147.284568
 20
853.037359
 30
0.0
 10
151.355850
 20
853.334516
 30
0.0
 10
155.406350
 20
853.822965
 30
0.0
  0
SPLINE
  5
1d0
100
AcDbEntity
  8
0
 62
7
100
AcDbSpline
 70
8
 71
3
 72
8
 73
4
 74
0
 40
0
 40
0
 40
0
 40
0
 40
1
 40
1
 40
1
 40
1
 10
194.766690
 20
861.353545
 30
0.0
 10
194.001172
 20
863.045001
 30
0.0
 10
192.026993
 20
863.818120
 30
0.0
 10
190.316380
 20
863.096355
 30
0.0
  0
SPLINE
  5
1d1
100
AcDbEntity
  8
0
 62
7
100
AcDbSpline
 70
8
 71
3
 72
8
 73
4
 74
0
 40
0
 40
0
 40
0
 40
0
 40
1
 40
1
 40
1
 40
1
 10
139.870240
 20
847.112425
 30
0.0
 10
139.870233
 20
846.189388
 30
0.0
 10
140.242930
 20
845.305451
 30
0.0
 10
140.903817
 20
844.661056
 30
0.0
  0
SPLINE
  5
1d2
100
AcDbEntity
  8
0
 62
7
100
AcDbSpline
 70
8
 71
3
 72
8
 73
4
 74
0
 40
0
 40
0
 40
0
 40
0
 40
1
 40
1
 40
1
 40
1
 10
140.903817
 20
844.661056
 30
0.0
 10
141.564704
 20
844.016662
 30
0.0
 10
142.457787
 20
843.666406
 30
0.0
 10
143.380550
 20
843.689715
 30
0.0
  0
SPLINE
  5
1d3
100
AcDbEntity
  8
0
 62
7
100
AcDbSpline
 70
8
 71
3
 72
8
 73
4
 74
0
 40
0
 40
0
 40
0
 40
0
 40
1
 40
1
 40
1
 40
1
 10
131.492540
 20
917.450225
 30
0.0
 10
134.905776
 20
917.011671
 30
0.0
 10
138.348179
 20
916.841806
 30
0.0
 10
141.788010
 20
916.942195
 30
0.0
  0
LWPOLYLINE
  5
1d4
100
AcDbEntity
  8
0
 62
7
100
AcDbPolyline
 90
2
 70
0
 10
194.766690
 20
861.353605
 30
0.0
 10
195.755200
 20
859.161375
 30
0.0
  0
LWPOLYLINE
  5
1d5
100
AcDbEntity
  8
0
 62
7
100
AcDbPolyline
 90
2
 70
0
 10
169.893380
 20
924.166915
 30
0.0
 10
182.403050
 20
899.798895
 30
0.0
  0
LWPOLYLINE
  5
1d6
100
AcDbEntity
  8
0
 62
7
100
AcDbPolyline
 90
2
 70
0
 10
165.215890
 20
921.992825
 30
0.0
 10
178.834180
 20
858.871505
 30
0.0
  0
SPLINE
  5
1d7
100
AcDbEntity
  8
0
 62
7
100
AcDbSpline
 70
8
 71
3
 72
8
 73
4
 74
0
 40
0
 40
0
 40
0
 40
0
 40
1
 40
1
 40
1
 40
1
 10
235.502040
 20
894.941485
 30
0.0
 10
238.259721
 20
897.948139
 30
0.0
 10
240.874068
 20
901.083171
 30
0.0
 10
243.336370
 20
904.336135
 30
0.0
  0
LWPOLYLINE
  5
1d8
100
AcDbEntity
  8
0
 62
7
100
AcDbPolyline
 90
2
 70
0
 10
174.386060
 20
926.703365
 30
0.0
 10
217.740150
 20
878.855095
 30
0.0
  0
SPLINE
  5
1d9
100
AcDbEntity
  8
0
 62
7
100
AcDbSpline
 70
8
 71
3
 72
8
 73
4
 74
0
 40
0
 40
0
 40
0
 40
0
 40
1
 40
1
 40
1
 40
1
 10
165.215910
 20
921.996685
 30
0.0
 10
168.391131
 20
923.323473
 30
0.0
 10
171.457264
 20
924.897534
 30
0.0
 10
174.386040
 20
926.704355
 30
0.0
  0
SPLINE
  5
1da
100
AcDbEntity
  8
0
 62
7
100
AcDbSpline
 70
8
 71
3
 72
8
 73
4
 74
0
 40
0
 40
0
 40
0
 40
0
 40
1
 40
1
 40
1
 40
1
 10
207.619690
 20
871.979295
 30
0.0
 10
206.036188
 20
871.009966
 30
0.0
 10
205.513814
 20
868.955218
 30
0.0
 10
206.442120
 20
867.347345
 30
0.0
  0
LWPOLYLINE
  5
1db
100
AcDbEntity
  8
0
 62
7
100
AcDbPolyline
 90
2
 70
0
 10
206.442200
 20
867.350475
 30
0.0
 10
207.640880
 20
865.266965
 30
0.0
  0
LWPOLYLINE
  5
1dc
100
AcDbEntity
  8
0
 62
7
100
AcDbPolyline
 90
2
 70
0
 10
182.403050
 20
899.798895
 30
0.0
 10
207.619690
 20
871.970455
 30
0.0
  0
SPLINE
  5
1dd
100
AcDbEntity
  8
0
 62
7
100
AcDbSpline
 70
8
 71
3
 72
8
 73
4
 74
0
 40
0
 40
0
 40
0
 40
0
 40
1
 40
1
 40
1
 40
1
 10
192.147920
 20
942.795345
 30
0.0
 10
194.234334
 20
945.531957
 30
0.0
 10
196.102636
 20
948.428172
 30
0.0
 10
197.735600
 20
951.457285
 30
0.0
  0
SPLINE
  5
1de
100
AcDbEntity
  8
0
 62
7
100
AcDbSpline
 70
8
 71
3
 72
8
 73
4
 74
0
 40
0
 40
0
 40
0
 40
0
 40
1
 40
1
 40
1
 40
1
 10
192.147920
 20
942.795345
 30
0.0
 10
194.234334
 20
945.531957
 30
0.0
 10
196.102636
 20
948.428172
 30
0.0
 10
197.735600
 20
951.457285
 30
0.0
  0
LWPOLYLINE
  5
1df
100
AcDbEntity
  8
0
 62
7
100
AcDbPolyline
 90
2
 70
0
 10
169.893380
 20
924.166915
 30
0.0
 10
182.403050
 20
899.798895
 30
0.0
  0
SPLINE
  5
1e0
100
AcDbEntity
  8
0
 62
7
100
AcDbSpline
 70
8
 71
3
 72
8
 73
4
 74
0
 40
0
 40
0
 40
0
 40
0
 40
1
 40
1
 40
1
 40
1
 10
212.392260
 20
864.062085
 30
0.0
 10
227.238894
 20
873.141049
 30
0.0
 10
240.248693
 20
884.927027
 30
0.0
 10
250.745410
 20
898.807385
 30
0.0
  0
LWPOLYLINE
  5
1e1
100
AcDbEntity
  8
0
 62
7
100
AcDbPolyline
 90
2
 70
0
 10
218.129140
 20
932.174855
 30
0.0
 10
243.336370
 20
904.328265
 30
0.0
  0
SPLINE
  5
1e2
100
AcDbEntity
  8
0
 62
7
100
AcDbSpline
 70
8
 71
3
 72
8
 73
4
 74
0
 40
0
 40
0
 40
0
 40
0
 40
1
 40
1
 40
1
 40
1
 10
250.745410
 20
898.807385
 30
0.0
 10
251.302171
 20
899.543611
 30
0.0
 10
251.538072
 20
900.473446
 30
0.0
 10
251.399622
 20
901.386042
 30
0.0
  0
SPLINE
  5
1e3
100
AcDbEntity
  8
0
 62
7
100
AcDbSpline
 70
8
 71
3
 72
8
 73
4
 74
0
 40
0
 40
0
 40
0
 40
0
 40
1
 40
1
 40
1
 40
1
 10
251.399622
 20
901.386042
 30
0.0
 10
251.261172
 20
902.298637
 30
0.0
 10
250.760100
 20
903.116670
 30
0.0
 10
250.010030
 20
903.654645
 30
0.0
  0
SPLINE
  5
1e4
100
AcDbEntity
  8
0
 62
7
100
AcDbSpline
 70
8
 71
3
 72
8
 73
4
 74
0
 40
0
 40
0
 40
0
 40
0
 40
1
 40
1
 40
1
 40
1
 10
207.619690
 20
871.979295
 30
0.0
 10
211.099327
 20
874.109332
 30
0.0
 10
214.476572
 20
876.402282
 30
0.0
 10
217.740170
 20
878.850505
 30
0.0
  0
SPLINE
  5
1e5
100
AcDbEntity
  8
0
 62
7
100
AcDbSpline
 70
8
 71
3
 72
8
 73
4
 74
0
 40
0
 40
0
 40
0
 40
0
 40
1
 40
1
 40
1
 40
1
 10
248.061860
 20
905.051915
 30
0.0
 10
246.553161
 20
906.134000
 30
0.0
 10
244.456916
 20
905.816477
 30
0.0
 10
243.336370
 20
904.336135
 30
0.0
  0
SPLINE
  5
1e6
100
AcDbEntity
  8
0
 62
7
100
AcDbSpline
 70
8
 71
3
 72
8
 73
4
 74
0
 40
0
 40
0
 40
0
 40
0
 40
1
 40
1
 40
1
 40
1
 10
207.640860
 20
865.271115
 30
0.0
 10
208.102384
 20
864.471742
 30
0.0
 10
208.867125
 20
863.892578
 30
0.0
 10
209.761672
 20
863.664953
 30
0.0
  0
SPLINE
  5
1e7
100
AcDbEntity
  8
0
 62
7
100
AcDbSpline
 70
8
 71
3
 72
8
 73
4
 74
0
 40
0
 40
0
 40
0
 40
0
 40
1
 40
1
 40
1
 40
1
 10
209.761672
 20
863.664953
 30
0.0
 10
210.656219
 20
863.437329
 30
0.0
 10
211.604780
 20
863.580530
 30
0.0
 10
212.392260
 20
864.062085
 30
0.0
  0
SPLINE
  5
1e8
100
AcDbEntity
  8
0
 62
7
100
AcDbSpline
 70
8
 71
3
 72
8
 73
4
 74
0
 40
0
 40
0
 40
0
 40
0
 40
1
 40
1
 40
1
 40
1
 10
165.215910
 20
921.996685
 30
0.0
 10
168.391131
 20
923.323473
 30
0.0
 10
171.457264
 20
924.897534
 30
0.0
 10
174.386040
 20
926.704355
 30
0.0
  0
LWPOLYLINE
  5
1e9
100
AcDbEntity
  8
0
 62
7
100
AcDbPolyline
 90
2
 70
0
 10
248.061860
 20
905.052975
 30
0.0
 10
250.010090
 20
903.657925
 30
0.0
  0
LWPOLYLINE
  5
1ea
100
AcDbEntity
  8
0
 62
7
100
AcDbPolyline
 90
2
 70
0
 10
195.111830
 20
947.013075
 30
0.0
 10
218.129140
 20
932.174855
 30
0.0
  0
LWPOLYLINE
  5
1eb
100
AcDbEntity
  8
0
 62
7
100
AcDbPolyline
 90
2
 70
0
 10
192.147940
 20
942.791695
 30
0.0
 10
235.502020
 20
894.943415
 30
0.0
  0
SPLINE
  5
1ec
100
AcDbEntity
  8
0
 62
7
100
AcDbSpline
 70
8
 71
3
 72
8
 73
4
 74
0
 40
0
 40
0
 40
0
 40
0
 40
1
 40
1
 40
1
 40
1
 10
266.545350
 20
954.507175
 30
0.0
 10
267.430218
 20
958.489822
 30
0.0
 10
268.126765
 20
962.511983
 30
0.0
 10
268.632670
 20
966.560255
 30
0.0
  0
LWPOLYLINE
  5
1ed
100
AcDbEntity
  8
0
 62
7
100
AcDbPolyline
 90
2
 70
0
 10
197.735660
 20
951.451845
 30
0.0
 10
259.208890
 20
931.685685
 30
0.0
  0
SPLINE
  5
1ee
100
AcDbEntity
  8
0
 62
7
100
AcDbSpline
 70
8
 71
3
 72
8
 73
4
 74
0
 40
0
 40
0
 40
0
 40
0
 40
1
 40
1
 40
1
 40
1
 10
192.147920
 20
942.795345
 30
0.0
 10
194.234334
 20
945.531957
 30
0.0
 10
196.102636
 20
948.428172
 30
0.0
 10
197.735600
 20
951.457285
 30
0.0
  0
SPLINE
  5
1ef
100
AcDbEntity
  8
0
 62
7
100
AcDbSpline
 70
8
 71
3
 72
8
 73
4
 74
0
 40
0
 40
0
 40
0
 40
0
 40
1
 40
1
 40
1
 40
1
 10
253.879870
 20
920.680465
 30
0.0
 10
252.993185
 20
919.049252
 30
0.0
 10
253.568213
 20
917.008588
 30
0.0
 10
255.176130
 20
916.080285
 30
0.0
  0
LWPOLYLINE
  5
1f0
100
AcDbEntity
  8
0
 62
7
100
AcDbPolyline
 90
2
 70
0
 10
255.176220
 20
916.086515
 30
0.0
 10
257.252350
 20
914.872645
 30
0.0
  0
LWPOLYLINE
  5
1f1
100
AcDbEntity
  8
0
 62
7
100
AcDbPolyline
 90
2
 70
0
 10
218.129140
 20
932.174855
 30
0.0
 10
253.879870
 20
920.688375
 30
0.0
  0
SPLINE
  5
1f2
100
AcDbEntity
  8
0
 62
7
100
AcDbSpline
 70
8
 71
3
 72
8
 73
4
 74
0
 40
0
 40
0
 40
0
 40
0
 40
1
 40
1
 40
1
 40
1
 10
205.072150
 20
974.273215
 30
0.0
 10
205.510716
 20
977.686378
 30
0.0
 10
205.680588
 20
981.128707
 30
0.0
 10
205.580200
 20
984.568465
 30
0.0
  0
SPLINE
  5
1f3
100
AcDbEntity
  8
0
 62
7
100
AcDbSpline
 70
8
 71
3
 72
8
 73
4
 74
0
 40
0
 40
0
 40
0
 40
0
 40
1
 40
1
 40
1
 40
1
 10
205.072150
 20
974.273215
 30
0.0
 10
205.510716
 20
977.686378
 30
0.0
 10
205.680588
 20
981.128707
 30
0.0
 10
205.580200
 20
984.568465
 30
0.0
  0
LWPOLYLINE
  5
1f4
100
AcDbEntity
  8
0
 62
7
100
AcDbPolyline
 90
2
 70
0
 10
195.111830
 20
947.013075
 30
0.0
 10
218.129140
 20
932.174855
 30
0.0
  0
SPLINE
  5
1f5
100
AcDbEntity
  8
0
 62
7
100
AcDbSpline
 70
8
 71
3
 72
8
 73
4
 74
0
 40
0
 40
0
 40
0
 40
0
 40
1
 40
1
 40
1
 40
1
 10
261.971760
 20
916.210195
 30
0.0
 10
270.289742
 20
931.495965
 30
0.0
 10
275.663444
 20
948.207678
 30
0.0
 10
277.813540
 20
965.476665
 30
0.0
  0
LWPOLYLINE
  5
1f6
100
AcDbEntity
  8
0
 62
7
100
AcDbPolyline
 90
2
 70
0
 10
232.885800
 20
978.066435
 30
0.0
 10
268.632720
 20
966.561845
 30
0.0
  0
SPLINE
  5
1f7
100
AcDbEntity
  8
0
 62
7
100
AcDbSpline
 70
8
 71
3
 72
8
 73
4
 74
0
 40
0
 40
0
 40
0
 40
0
 40
1
 40
1
 40
1
 40
1
 10
277.813540
 20
965.476665
 30
0.0
 10
277.927577
 20
966.392622
 30
0.0
 10
277.666942
 20
967.315820
 30
0.0
 10
277.090737
 20
968.036918
 30
0.0
  0
SPLINE
  5
1f8
100
AcDbEntity
  8
0
 62
7
100
AcDbSpline
 70
8
 71
3
 72
8
 73
4
 74
0
 40
0
 40
0
 40
0
 40
0
 40
1
 40
1
 40
1
 40
1
 10
277.090737
 20
968.036918
 30
0.0
 10
276.514531
 20
968.758016
 30
0.0
 10
275.671574
 20
969.215919
 30
0.0
 10
274.753010
 20
969.306795
 30
0.0
  0
SPLINE
  5
1f9
100
AcDbEntity
  8
0
 62
7
100
AcDbSpline
 70
8
 71
3
 72
8
 73
4
 74
0
 40
0
 40
0
 40
0
 40
0
 40
1
 40
1
 40
1
 40
1
 10
253.879870
 20
920.680465
 30
0.0
 10
255.828291
 20
924.264907
 30
0.0
 10
257.606580
 20
927.939242
 30
0.0
 10
259.208810
 20
931.691225
 30
0.0
  0
SPLINE
  5
1fa
100
AcDbEntity
  8
0
 62
7
100
AcDbSpline
 70
8
 71
3
 72
8
 73
4
 74
0
 40
0
 40
0
 40
0
 40
0
 40
1
 40
1
 40
1
 40
1
 10
272.367170
 20
969.542825
 30
0.0
 10
270.519546
 20
969.725607
 30
0.0
 10
268.862908
 20
968.402528
 30
0.0
 10
268.632670
 20
966.560255
 30
0.0
  0
SPLINE
  5
1fb
100
AcDbEntity
  8
0
 62
7
100
AcDbSpline
 70
8
 71
3
 72
8
 73
4
 74
0
 40
0
 40
0
 40
0
 40
0
 40
1
 40
1
 40
1
 40
1
 10
257.252390
 20
914.881575
 30
0.0
 10
258.051780
 20
914.420053
 30
0.0
 10
259.003658
 20
914.300847
 30
0.0
 10
259.892176
 20
914.550986
 30
0.0
  0
SPLINE
  5
1fc
100
AcDbEntity
  8
0
 62
7
100
AcDbSpline
 70
8
 71
3
 72
8
 73
4
 74
0
 40
0
 40
0
 40
0
 40
0
 40
1
 40
1
 40
1
 40
1
 10
259.892176
 20
914.550986
 30
0.0
 10
260.780693
 20
914.801126
 30
0.0
 10
261.530569
 20
915.399419
 30
0.0
 10
261.971760
 20
916.210195
 30
0.0
  0
SPLINE
  5
1fd
100
AcDbEntity
  8
0
 62
7
100
AcDbSpline
 70
8
 71
3
 72
8
 73
4
 74
0
 40
0
 40
0
 40
0
 40
0
 40
1
 40
1
 40
1
 40
1
 10
192.147920
 20
942.795345
 30
0.0
 10
194.234334
 20
945.531957
 30
0.0
 10
196.102636
 20
948.428172
 30
0.0
 10
197.735600
 20
951.457285
 30
0.0
  0
LWPOLYLINE
  5
1fe
100
AcDbEntity
  8
0
 62
7
100
AcDbPolyline
 90
2
 70
0
 10
272.367170
 20
969.551225
 30
0.0
 10
274.752940
 20
969.315695
 30
0.0
  0
LWPOLYLINE
  5
1ff
100
AcDbEntity
  8
0
 62
7
100
AcDbPolyline
 90
2
 70
0
 10
205.528340
 20
979.407155
 30
0.0
 10
232.885800
 20
978.066435
 30
0.0
  0
LWPOLYLINE
  5
200
100
AcDbEntity
  8
0
 62
7
100
AcDbPolyline
 90
2
 70
0
 10
205.072130
 20
974.279875
 30
0.0
 10
266.545350
 20
954.513715
 30
0.0
  0
ENDSEC
  0
SECTION
  2
OBJECTS
  0
DICTIONARY
  5
C
330
0
100
AcDbDictionary
  3
ACAD_GROUP
350
D
  3
ACAD_MLINESTYLE
350
17
  0
DICTIONARY
  5
D
330
C
100
AcDbDictionary
  0
DICTIONARY
  5
1A
330
C
100
AcDbDictionary
  0
DICTIONARY
  5
17
330
C
100
AcDbDictionary
  3
STANDARD
350
18
  0
DICTIONARY
  5
19
330
C
100
AcDbDictionary
  0
ENDSEC
  0
EOF
